<svg xmlns="http://www.w3.org/2000/svg" width="600" height="451" fill="none"><g filter="url(#a)"><rect width="514.103" height="224.908" x="43" y="170.526" fill="#fff" rx="9.267"/></g><path fill="#48BB78" d="m57.048 210.624-.3-.409c-.194-.248-.401-.617-.621-1.107-.391-.875-.587-1.737-.587-2.584 0-.772.165-1.538.494-2.298.223-.518.548-1.075.976-1.672h.908l-.258.473a7.042 7.042 0 0 0-.74 2.044c-.09.467-.134.977-.134 1.529 0 .861.125 1.654.376 2.377.146.428.405.977.777 1.647h-.891zm4.147-3.484v1.74h-1.111v-1.74h-1.731v-1.102h1.731v-1.732h1.11v1.732h1.732v1.102h-1.731zm4.206-1.301c-.146 0-.273.019-.38.055a.757.757 0 0 0-.427.376l-1.08-.05.43-3.383h3.374v1.022h-2.504l-.22 1.339a2.43 2.43 0 0 1 .435-.241c.175-.065.388-.097.638-.097.507 0 .949.17 1.326.511.377.34.566.836.566 1.486a2.33 2.33 0 0 1-.545 1.516c-.363.445-.906.668-1.63.668-.583 0-1.061-.157-1.436-.469-.374-.313-.583-.756-.625-1.33h1.2c.047.261.139.464.274.608.135.14.332.211.591.211.299 0 .525-.104.68-.313.158-.211.237-.475.237-.794 0-.312-.073-.575-.22-.789-.146-.217-.374-.326-.684-.326zm4.89 3.193c-.78 0-1.327-.273-1.642-.819-.313-.546-.47-1.325-.47-2.336 0-1.01.157-1.79.47-2.339.315-.549.863-.824 1.642-.824.78 0 1.328.275 1.643.824.313.549.469 1.329.469 2.339 0 1.011-.158 1.79-.473 2.336-.313.546-.859.819-1.639.819zm.706-1.541c.11-.372.164-.91.164-1.614 0-.737-.056-1.283-.168-1.638-.11-.355-.344-.532-.702-.532-.357 0-.594.177-.71.532-.115.355-.172.901-.172 1.638 0 .704.057 1.243.173 1.618.115.372.352.557.71.557.357 0 .592-.187.705-.561zm3.007 2.724-.3.409h-.891c.371-.67.63-1.219.777-1.647.25-.723.376-1.516.376-2.377 0-.552-.045-1.062-.136-1.529a7.042 7.042 0 0 0-.739-2.044l-.257-.473h.908c.428.597.753 1.154.975 1.672.33.76.494 1.526.494 2.298 0 .847-.195 1.709-.587 2.584-.22.49-.426.859-.62 1.107zm7.154-4.671c-.102-.223-.3-.334-.596-.334-.343 0-.574.111-.692.334-.065.127-.098.315-.098.566v2.77h-1.22v-4.595h1.17v.672c.149-.24.29-.41.422-.511.234-.18.536-.27.908-.27.352 0 .636.077.853.232.175.143.307.328.397.553.158-.27.353-.469.587-.595a1.79 1.79 0 0 1 .828-.19c.203 0 .403.039.6.118a1.341 1.341 0 0 1 .798 1.005c.028.155.042.381.042.68l-.008 2.901h-1.234v-2.931a.966.966 0 0 0-.084-.431c-.107-.213-.304-.32-.591-.32-.333 0-.562.137-.689.413a1.303 1.303 0 0 0-.097.528v2.741h-1.212v-2.741c0-.273-.028-.471-.084-.595zm8.948-.684c.389.487.583 1.063.583 1.727 0 .676-.194 1.254-.582 1.736-.389.478-.979.718-1.77.718s-1.381-.24-1.77-.718c-.388-.482-.582-1.06-.582-1.736 0-.664.194-1.24.582-1.727.389-.487.979-.731 1.77-.731s1.381.244 1.77.731zm-1.773.287c-.352 0-.624.125-.815.376-.189.247-.283.602-.283 1.064 0 .462.094.818.283 1.068.191.251.463.376.815.376.352 0 .622-.125.81-.376.19-.25.284-.606.284-1.068 0-.462-.095-.817-.283-1.064-.189-.251-.46-.376-.811-.376zm5.536.241c-.484 0-.81.157-.975.473-.093.177-.14.45-.14.819v2.2h-1.212v-4.603h1.15v.802c.185-.307.347-.516.485-.629.225-.189.518-.283.878-.283.023 0 .041.001.055.004l.106.005v1.233a3.011 3.011 0 0 0-.347-.021zm4.996 2.141c-.03.273-.173.55-.426.832-.394.447-.946.671-1.656.671a2.33 2.33 0 0 1-1.55-.566c-.447-.377-.671-.991-.671-1.841 0-.797.201-1.408.604-1.833.405-.425.93-.638 1.575-.638.383 0 .728.072 1.035.216.307.143.56.37.76.68.18.273.297.59.35.95.031.211.044.515.038.912h-3.15c.017.462.162.786.435.971.166.116.366.174.6.174a.864.864 0 0 0 .604-.212.999.999 0 0 0 .223-.316h1.23zm-1.19-1.411c-.02-.318-.117-.559-.292-.722a.887.887 0 0 0-.642-.249c-.279 0-.495.087-.65.262-.152.174-.248.411-.287.709h1.87z"/><path fill="#A0AEC0" d="M102.143 204.378h.772v4.502h-.772v-4.502zm0-1.702h.772v.862h-.772v-.862zm1.925 1.681h.722v.642c.214-.265.441-.455.68-.57a1.81 1.81 0 0 1 .799-.173c.641 0 1.075.224 1.3.671.124.245.186.596.186 1.052v2.901h-.773v-2.851c0-.275-.041-.498-.122-.667-.135-.281-.38-.422-.735-.422-.18 0-.328.018-.443.055a1.14 1.14 0 0 0-.549.371c-.127.15-.21.305-.25.465a3.237 3.237 0 0 0-.055.68v2.369h-.76v-4.523zm9.705 3.805c.284 0 .518-.029.701-.088.327-.11.594-.321.803-.634.166-.251.285-.572.359-.963a3.69 3.69 0 0 0 .063-.65c0-.769-.154-1.366-.46-1.791-.305-.425-.796-.638-1.474-.638h-1.491v4.764h1.499zm-2.344-5.486h2.513c.853 0 1.515.303 1.985.908.419.546.629 1.246.629 2.099 0 .659-.124 1.254-.371 1.787-.437.94-1.187 1.41-2.251 1.41h-2.505v-6.204zm7.995 1.58c.321 0 .632.076.933.228.301.149.531.343.688.583.152.228.254.494.304.798.046.208.068.54.068.996h-3.315c.014.459.122.828.325 1.107.203.276.517.414.942.414.397 0 .714-.131.95-.393.135-.152.231-.328.287-.528h.748a1.58 1.58 0 0 1-.199.558c-.11.202-.233.368-.371.498a1.776 1.776 0 0 1-.858.456c-.183.045-.39.068-.621.068-.563 0-1.04-.205-1.431-.613-.392-.411-.587-.985-.587-1.723 0-.726.197-1.316.591-1.769.394-.454.909-.68 1.546-.68zm1.212 2.002c-.031-.33-.103-.593-.216-.79-.208-.366-.556-.549-1.043-.549a1.15 1.15 0 0 0-.878.38c-.237.25-.362.57-.376.959h2.513zm3.463-2.032c.509 0 .923.124 1.241.372.321.248.514.674.579 1.279h-.739a1.356 1.356 0 0 0-.308-.692c-.161-.186-.418-.279-.773-.279-.484 0-.831.237-1.039.71-.135.307-.203.685-.203 1.136 0 .453.096.834.287 1.144.192.31.493.465.904.465.315 0 .565-.096.748-.287.185-.195.314-.459.384-.794h.739c-.085.599-.296 1.038-.634 1.317-.337.276-.77.414-1.296.414-.591 0-1.063-.215-1.415-.646-.352-.434-.528-.974-.528-1.622 0-.794.193-1.412.579-1.854a1.87 1.87 0 0 1 1.474-.663z"/><path fill="#2D3748" d="M61.102 193.181h-3.888v2.058h4.43v1.439H55.58v-8.004h5.87v1.417h-4.236v1.7h3.888v1.39zm5.044-.793c-.13-.286-.386-.429-.766-.429-.441 0-.738.143-.89.429-.084.163-.125.406-.125.728v3.562h-1.57v-5.908H64.3v.863c.192-.307.373-.526.543-.657.3-.231.69-.347 1.167-.347.453 0 .818.1 1.097.299.224.184.394.421.51.711.203-.348.455-.603.755-.766a2.301 2.301 0 0 1 1.064-.244c.26 0 .518.051.771.152.254.101.484.279.69.532.166.206.279.46.337.76.036.199.054.491.054.874l-.011 3.731h-1.585v-3.769c0-.224-.037-.409-.11-.553-.137-.275-.39-.413-.76-.413-.426 0-.721.177-.884.532a1.672 1.672 0 0 0-.125.679v3.524h-1.559v-3.524c0-.351-.036-.607-.108-.766zm6.793-.988c.409-.521 1.11-.782 2.106-.782.648 0 1.224.129 1.727.386.503.257.755.742.755 1.455v2.715c0 .188.003.416.01.684.011.203.042.34.093.413.05.072.127.132.228.179v.228h-1.683a1.734 1.734 0 0 1-.098-.337 4.063 4.063 0 0 1-.043-.358 3.2 3.2 0 0 1-.739.592c-.333.191-.71.287-1.13.287-.535 0-.979-.152-1.33-.456-.347-.307-.52-.742-.52-1.303 0-.727.28-1.254.84-1.58.308-.177.76-.304 1.358-.38l.527-.065c.286-.036.49-.082.613-.136.221-.094.332-.241.332-.44 0-.242-.085-.409-.256-.499-.166-.094-.412-.141-.738-.141-.366 0-.624.09-.776.271a1.129 1.129 0 0 0-.218.543h-1.493c.033-.518.177-.943.434-1.276zm1.15 4.159c.145.12.323.179.533.179.333 0 .639-.097.917-.293.283-.195.43-.552.44-1.069v-.576a1.843 1.843 0 0 1-.298.152 2.574 2.574 0 0 1-.408.103l-.347.065c-.326.058-.56.129-.7.212-.24.141-.359.36-.359.657 0 .264.074.454.223.57zm6.408-4.8v5.919h-1.57v-5.919h1.57zm0-2.134v1.428h-1.57v-1.428h1.57zm1.536.049h1.548v8.004h-1.548v-8.004zm11.93 7.406c-.598.547-1.361.82-2.292.82-1.15 0-2.056-.369-2.715-1.107-.658-.742-.988-1.76-.988-3.052 0-1.397.375-2.474 1.124-3.231.652-.658 1.48-.988 2.487-.988 1.347 0 2.331.442 2.954 1.325.344.496.528.994.554 1.493h-1.673c-.108-.383-.248-.673-.418-.869-.304-.347-.755-.521-1.352-.521-.608 0-1.088.246-1.439.739-.35.488-.526 1.182-.526 2.079 0 .898.184 1.571.553 2.02a1.77 1.77 0 0 0 1.418.668c.586 0 1.033-.192 1.34-.576.17-.206.312-.515.424-.928h1.656c-.144.872-.514 1.582-1.107 2.128zm7.2-4.571c.499.626.749 1.366.749 2.22 0 .869-.25 1.613-.749 2.232-.5.615-1.258.923-2.276.923-1.017 0-1.775-.308-2.275-.923-.5-.619-.749-1.363-.749-2.232 0-.854.25-1.594.75-2.22.499-.627 1.257-.94 2.274-.94 1.018 0 1.776.313 2.276.94zm-2.281.369c-.453 0-.802.161-1.048.483-.243.319-.364.775-.364 1.368 0 .594.121 1.052.364 1.374.246.322.596.483 1.048.483.453 0 .8-.161 1.042-.483.243-.322.364-.78.364-1.374 0-.593-.121-1.049-.364-1.368-.242-.322-.59-.483-1.042-.483zm4.176-3.204h1.547v8.004h-1.547v-8.004zm3.094 0h1.548v8.004h-1.548v-8.004zm8.129 6.266c-.04.351-.223.708-.549 1.07-.506.575-1.216.863-2.128.863a3.003 3.003 0 0 1-1.993-.727c-.575-.485-.863-1.275-.863-2.368 0-1.024.259-1.81.776-2.356.522-.547 1.197-.82 2.026-.82.492 0 .935.092 1.33.277.395.184.72.476.977.874.232.351.382.758.451 1.222.04.271.056.662.049 1.172h-4.051c.022.594.208 1.01.56 1.249.213.149.47.223.771.223.318 0 .577-.091.776-.272.109-.097.205-.233.288-.407h1.58zm-1.531-1.813c-.026-.409-.151-.719-.375-.929a1.142 1.142 0 0 0-.825-.32c-.359 0-.637.112-.836.336-.196.225-.319.529-.37.913h2.406zm7.775-.245h-1.585a1.381 1.381 0 0 0-.223-.597c-.174-.239-.443-.358-.809-.358-.521 0-.878.258-1.07.776-.101.275-.152.641-.152 1.097 0 .434.051.784.152 1.048.185.492.532.738 1.043.738.362 0 .619-.097.771-.293.152-.195.244-.449.277-.76h1.58a2.58 2.58 0 0 1-.511 1.336c-.485.677-1.203 1.015-2.155 1.015-.952 0-1.653-.282-2.102-.847-.448-.565-.673-1.298-.673-2.199 0-1.017.248-1.808.744-2.373.496-.565 1.18-.847 2.053-.847.742 0 1.348.167 1.819.5.474.333.754.921.841 1.764zm3.779 2.693v1.157l-.733.027c-.731.026-1.231-.101-1.498-.38-.174-.177-.261-.451-.261-.82v-3.643h-.825v-1.102h.825v-1.651h1.531v1.651h.961v1.102h-.961v3.127c0 .243.031.395.092.456.062.058.25.087.565.087h.147l.157-.011zm6.06-.635c-.04.351-.223.708-.549 1.07-.506.575-1.216.863-2.128.863a3.003 3.003 0 0 1-1.993-.727c-.575-.485-.863-1.275-.863-2.368 0-1.024.259-1.81.776-2.356.522-.547 1.197-.82 2.026-.82.492 0 .935.092 1.33.277.395.184.72.476.977.874.232.351.382.758.451 1.222.04.271.056.662.049 1.172h-4.051c.022.594.208 1.01.56 1.249.213.149.47.223.771.223.318 0 .577-.091.776-.272.109-.097.205-.233.288-.407h1.58zm-1.531-1.813c-.026-.409-.151-.719-.375-.929a1.142 1.142 0 0 0-.825-.32c-.359 0-.637.112-.836.336-.196.225-.319.529-.37.913h2.406zm8.041-4.442v7.993h-1.504v-.82c-.221.351-.472.606-.755.765-.282.16-.633.239-1.053.239-.691 0-1.274-.278-1.748-.836-.471-.561-.706-1.279-.706-2.155 0-1.01.231-1.805.695-2.384.467-.579 1.089-.869 1.868-.869.358 0 .677.08.955.239.279.156.505.373.679.652v-2.824h1.569zm-4.17 5.072c0 .546.109.982.326 1.308.213.329.539.494.977.494.438 0 .771-.163.999-.488.228-.326.342-.748.342-1.266 0-.724-.182-1.241-.548-1.553a1.18 1.18 0 0 0-.782-.282c-.452 0-.785.172-.999.516-.21.34-.315.764-.315 1.271zm12.342 3.143c-1.144 0-2.018-.311-2.623-.934-.81-.763-1.216-1.864-1.216-3.301 0-1.466.406-2.566 1.216-3.301.605-.623 1.479-.934 2.623-.934 1.144 0 2.018.311 2.623.934.807.735 1.21 1.835 1.21 3.301 0 1.437-.403 2.538-1.21 3.301-.605.623-1.479.934-2.623.934zm1.58-2.15c.387-.489.581-1.184.581-2.085 0-.898-.195-1.591-.586-2.079-.388-.493-.913-.739-1.575-.739-.662 0-1.191.244-1.585.733-.395.489-.592 1.184-.592 2.085s.197 1.596.592 2.085c.394.489.923.733 1.585.733.662 0 1.189-.244 1.58-.733zm2.829-3.991h1.738l1.232 4.366 1.26-4.366h1.661l-2.134 5.919h-1.634l-2.123-5.919zm11.837 4.181c-.04.351-.223.708-.548 1.07-.507.575-1.217.863-2.129.863a3.003 3.003 0 0 1-1.993-.727c-.575-.485-.863-1.275-.863-2.368 0-1.024.259-1.81.776-2.356.522-.547 1.197-.82 2.026-.82.492 0 .935.092 1.33.277.395.184.72.476.977.874.232.351.382.758.451 1.222.04.271.056.662.049 1.172h-4.051c.022.594.208 1.01.56 1.249.213.149.47.223.771.223.318 0 .577-.091.776-.272.109-.097.205-.233.288-.407h1.58zm-1.531-1.813c-.026-.409-.15-.719-.375-.929a1.142 1.142 0 0 0-.825-.32c-.359 0-.637.112-.836.336-.196.225-.319.529-.37.913h2.406zm5.63-.94c-.622 0-1.04.203-1.254.608-.119.228-.179.58-.179 1.054v2.829H162.4v-5.919h1.476v1.032c.239-.395.448-.664.625-.809.29-.243.666-.364 1.129-.364.029 0 .053.002.071.006.022 0 .067.001.136.005v1.585a4.367 4.367 0 0 0-.446-.027zm.777-1.428h1.737l1.233 4.366 1.26-4.366h1.661l-2.134 5.919h-1.634l-2.123-5.919zm8.362 0v5.919h-1.569v-5.919h1.569zm0-2.134v1.428h-1.569v-1.428h1.569zm6.57 6.315c-.04.351-.223.708-.549 1.07-.506.575-1.216.863-2.128.863a3.003 3.003 0 0 1-1.993-.727c-.575-.485-.863-1.275-.863-2.368 0-1.024.259-1.81.776-2.356.522-.547 1.197-.82 2.026-.82.492 0 .935.092 1.33.277.394.184.72.476.977.874.232.351.382.758.451 1.222.04.271.056.662.049 1.172h-4.051c.022.594.208 1.01.559 1.249.214.149.471.223.771.223.319 0 .578-.091.777-.272.109-.097.204-.233.288-.407h1.58zm-1.531-1.813c-.026-.409-.151-.719-.375-.929a1.142 1.142 0 0 0-.825-.32c-.359 0-.638.112-.837.336-.195.225-.318.529-.369.913h2.406zm7.145 3.551-.928-4.312-.94 4.312h-1.607l-1.661-5.919h1.661l.923 4.246.853-4.246h1.569l.901 4.263.923-4.263h1.613l-1.716 5.919h-1.591z"/><path fill="#CBD5E0" d="M538.387 379.196h-1.724v-4.001h1.724c.248.003.454.032.619.086.28.093.507.262.681.508.14.199.235.415.285.646.051.232.076.453.076.663 0 .532-.107.982-.32 1.352-.29.497-.737.746-1.341.746zm.621-2.981c-.128-.217-.382-.325-.762-.325h-.771v2.611h.771c.394 0 .669-.194.825-.583.085-.214.127-.468.127-.763 0-.408-.063-.721-.19-.94zm4.143 2.113c-.02.175-.111.353-.274.534-.253.288-.608.432-1.064.432-.377 0-.709-.121-.996-.364-.288-.242-.432-.637-.432-1.183 0-.513.129-.905.388-1.179.261-.273.598-.41 1.013-.41.246 0 .468.046.665.139.197.092.36.238.489.437.115.175.191.379.225.611.02.135.028.331.024.586h-2.025c.011.297.104.505.28.625a.657.657 0 0 0 .385.111.552.552 0 0 0 .388-.136.632.632 0 0 0 .144-.203h.79zm-.765-.907c-.013-.205-.075-.36-.188-.464a.569.569 0 0 0-.412-.161.527.527 0 0 0-.418.169.84.84 0 0 0-.185.456h1.203zm3.887-.122h-.792a.69.69 0 0 0-.112-.299c-.086-.12-.221-.179-.404-.179-.261 0-.439.129-.535.388-.051.138-.076.32-.076.548 0 .218.025.392.076.524.092.247.266.37.521.37.181 0 .31-.049.386-.147a.727.727 0 0 0 .138-.38h.79a1.295 1.295 0 0 1-.255.668c-.242.338-.602.507-1.078.507-.476 0-.826-.141-1.05-.423-.225-.282-.337-.649-.337-1.1 0-.508.124-.904.372-1.186.248-.282.59-.424 1.026-.424.371 0 .674.084.91.25.237.167.377.461.42.883zm-48.66 1.897h-.836l-1.635-2.842v2.842h-.779v-4.001h.877l1.594 2.793v-2.793h.779v4.001zm3.187-2.584c.25.313.375.683.375 1.11 0 .434-.125.806-.375 1.116-.25.308-.629.461-1.137.461-.509 0-.888-.153-1.138-.461a1.722 1.722 0 0 1-.375-1.116c0-.427.125-.797.375-1.11.25-.313.629-.47 1.138-.47.508 0 .887.157 1.137.47zm-1.14.184a.621.621 0 0 0-.524.242c-.121.159-.182.387-.182.684 0 .297.061.526.182.687a.621.621 0 0 0 .524.242c.226 0 .4-.081.521-.242.121-.161.182-.39.182-.687 0-.297-.061-.525-.182-.684-.121-.161-.295-.242-.521-.242zm1.781-.559h.869l.616 2.183.63-2.183h.83l-1.067 2.959h-.817l-1.061-2.959zm-46.467 3.071c-.572 0-1.009-.156-1.311-.467-.406-.382-.609-.932-.609-1.651 0-.733.203-1.283.609-1.651.302-.311.739-.467 1.311-.467s1.009.156 1.311.467c.404.368.606.918.606 1.651 0 .719-.202 1.269-.606 1.651-.302.311-.739.467-1.311.467zm.79-1.075c.194-.245.29-.592.29-1.043 0-.449-.097-.795-.293-1.04a.948.948 0 0 0-.787-.369.967.967 0 0 0-.793.366c-.197.245-.296.592-.296 1.043 0 .451.099.798.296 1.043a.967.967 0 0 0 .793.366.96.96 0 0 0 .79-.366zm4.265-.934h-.793a.677.677 0 0 0-.111-.299c-.087-.12-.222-.179-.405-.179-.26 0-.438.129-.534.388-.051.138-.076.32-.076.548 0 .218.025.392.076.524.092.247.266.37.521.37.181 0 .309-.049.385-.147a.727.727 0 0 0 .139-.38h.79a1.295 1.295 0 0 1-.255.668c-.243.338-.602.507-1.078.507-.476 0-.826-.141-1.051-.423-.224-.282-.336-.649-.336-1.1 0-.508.124-.904.372-1.186.247-.282.59-.424 1.026-.424.371 0 .674.084.909.25.237.167.378.461.421.883zm1.89 1.346v.578l-.367.014c-.366.013-.615-.051-.749-.19-.087-.089-.131-.225-.131-.41v-1.822h-.412v-.551h.412v-.825h.766v.825h.481v.551h-.481v1.564c0 .121.015.197.046.228.031.029.125.044.283.044h.073l.079-.006zm-49.27-.027c.198 0 .358-.022.481-.065.233-.083.35-.238.35-.464a.341.341 0 0 0-.174-.307c-.115-.071-.297-.133-.545-.187l-.424-.096c-.416-.094-.704-.196-.863-.306-.27-.185-.405-.474-.405-.866 0-.359.131-.656.391-.894.261-.237.644-.355 1.149-.355.421 0 .781.112 1.078.336.298.223.455.547.469.972h-.803c-.015-.24-.12-.411-.315-.513a1.06 1.06 0 0 0-.486-.1c-.216 0-.388.043-.516.13a.414.414 0 0 0-.193.364c0 .143.063.25.19.32.082.047.255.103.521.166l.69.165c.302.073.53.17.684.291.239.188.359.461.359.817 0 .366-.141.67-.421.912-.279.241-.674.361-1.184.361-.521 0-.931-.118-1.23-.355-.298-.239-.448-.567-.448-.983h.798c.026.183.075.319.15.41.135.165.368.247.697.247zm4.727-.29c-.02.175-.111.353-.274.534-.254.288-.608.432-1.064.432a1.5 1.5 0 0 1-.997-.364c-.288-.242-.431-.637-.431-1.183 0-.513.129-.905.388-1.179.26-.273.598-.41 1.012-.41.247 0 .468.046.666.139.197.092.36.238.488.437.116.175.191.379.226.611.02.135.028.331.024.586h-2.025c.011.297.104.505.279.625a.662.662 0 0 0 .386.111.552.552 0 0 0 .388-.136.665.665 0 0 0 .144-.203h.79zm-.766-.907c-.012-.205-.075-.36-.187-.464a.57.57 0 0 0-.413-.161.528.528 0 0 0-.418.169.847.847 0 0 0-.184.456h1.202zm3.807-.866c.239.255.358.63.358 1.124 0 .521-.118.918-.353 1.192a1.134 1.134 0 0 1-.904.409.94.94 0 0 1-.586-.176 1.125 1.125 0 0 1-.25-.285v1.542h-.766v-4.124h.741v.437c.084-.128.172-.23.267-.304a.975.975 0 0 1 .613-.198c.346 0 .639.128.88.383zm-.44 1.162c0-.228-.053-.43-.158-.606-.103-.175-.271-.263-.505-.263-.28 0-.473.133-.578.399a1.52 1.52 0 0 0-.081.538c0 .343.091.585.274.724a.622.622 0 0 0 .385.123c.216 0 .38-.084.492-.25.114-.167.171-.388.171-.665zm-49.001.656h-1.474l-.277.823h-.874l1.428-4.002h.945l1.417 4.002h-.907l-.258-.823zm-.233-.689-.5-1.575-.515 1.575h1.015zm3.744 1.094a1.416 1.416 0 0 0-.055.081.515.515 0 0 1-.103.12 1.064 1.064 0 0 1-.353.222c-.112.04-.244.06-.396.06-.438 0-.733-.157-.885-.472-.085-.174-.128-.43-.128-.769v-1.783h.793v1.783c0 .169.02.296.06.381.07.15.209.225.415.225.264 0 .445-.107.543-.32.051-.116.076-.269.076-.459v-1.61h.785v2.959h-.752v-.418zm2.337.937c.084.07.224.105.421.105.279 0 .465-.093.559-.279.062-.12.093-.321.093-.603v-.19a.948.948 0 0 1-.239.285c-.154.118-.354.177-.6.177-.38 0-.684-.133-.912-.399-.227-.268-.34-.63-.34-1.086 0-.44.11-.809.329-1.108.219-.301.529-.451.931-.451.148 0 .278.023.388.068.188.078.34.221.456.429v-.426h.752v2.807c0 .382-.064.67-.192.863-.221.333-.645.5-1.271.5-.378 0-.687-.074-.926-.223a.82.82 0 0 1-.396-.665h.841a.35.35 0 0 0 .106.196zm-.13-1.529c.105.25.293.375.565.375a.6.6 0 0 0 .459-.204c.124-.137.187-.356.187-.654 0-.281-.06-.494-.179-.641a.58.58 0 0 0-.475-.22c-.272 0-.459.128-.562.383a1.342 1.342 0 0 0-.082.502c0 .172.029.325.087.459zm-46.415-.193v-2.799h.836v2.786c0 .34-.058.61-.176.809-.199.336-.558.505-1.078.505-.519 0-.868-.136-1.045-.407-.177-.274-.266-.646-.266-1.116v-.093h.79v.093c.007.309.041.527.1.654.062.125.192.187.391.187.198 0 .328-.068.391-.206.038-.081.057-.219.057-.413zm3.502.785a1.698 1.698 0 0 0-.054.081.54.54 0 0 1-.103.12 1.064 1.064 0 0 1-.353.222c-.112.04-.244.06-.396.06-.438 0-.733-.157-.885-.472-.085-.174-.128-.43-.128-.769v-1.783h.793v1.783c0 .169.02.296.06.381.07.15.209.225.415.225.264 0 .445-.107.543-.32.051-.116.076-.269.076-.459v-1.61h.785v2.959h-.753v-.418zm1.518-3.584h.774v4.002h-.774v-4.002zm-46.748 2.799v-2.799h.836v2.786c0 .34-.059.61-.177.809-.199.336-.558.505-1.077.505-.52 0-.868-.136-1.046-.407-.177-.274-.266-.646-.266-1.116v-.093h.79v.093c.008.309.041.527.101.654.061.125.192.187.391.187.197 0 .327-.068.391-.206.038-.081.057-.219.057-.413zm3.502.785a1.698 1.698 0 0 0-.054.081.568.568 0 0 1-.103.12 1.074 1.074 0 0 1-.353.222c-.113.04-.245.06-.397.06-.438 0-.733-.157-.885-.472-.085-.174-.127-.43-.127-.769v-1.783h.792v1.783c0 .169.02.296.06.381.071.15.209.225.415.225.265 0 .446-.107.543-.32.051-.116.076-.269.076-.459v-1.61h.785v2.959h-.752v-.418zm2.894-1.968c-.262 0-.442.111-.54.334a1.135 1.135 0 0 0-.076.45v1.602h-.771v-2.954h.746v.432c.1-.152.194-.262.283-.329a.983.983 0 0 1 .605-.179c.306 0 .556.081.749.242.196.159.294.424.294.795v1.993h-.793v-1.8a.811.811 0 0 0-.063-.358c-.076-.152-.22-.228-.434-.228zm-49.622 2.386h-.779v-4.002h1.216l.728 3.147.722-3.147h1.202v4.002h-.779v-2.707l.003-.325.003-.326-.758 3.358h-.812l-.752-3.358.003.326.003.325v2.707zm3.915-2.639c.204-.26.555-.391 1.053-.391.324 0 .612.064.863.193.252.128.378.371.378.728v1.357c0 .094.002.208.005.342a.44.44 0 0 0 .046.206.284.284 0 0 0 .114.09v.114h-.841a.84.84 0 0 1-.049-.168 2.307 2.307 0 0 1-.022-.179c-.107.115-.23.214-.369.295a1.112 1.112 0 0 1-.565.144.98.98 0 0 1-.665-.228c-.174-.154-.26-.371-.26-.651 0-.364.14-.627.42-.79.154-.089.38-.152.679-.19l.263-.033c.143-.018.246-.041.307-.068.111-.047.166-.12.166-.22 0-.121-.043-.204-.128-.249-.083-.048-.206-.071-.369-.071-.183 0-.312.045-.388.136a.555.555 0 0 0-.109.271h-.746a1.13 1.13 0 0 1 .217-.638zm.575 2.08c.073.06.161.089.266.089.167 0 .32-.048.459-.146.141-.098.215-.276.22-.535v-.288a.911.911 0 0 1-.149.076 1.404 1.404 0 0 1-.204.052l-.174.032a1.14 1.14 0 0 0-.35.106.356.356 0 0 0-.179.329c0 .132.037.227.111.285zm3.611-.217.611-2.183h.823l-1.016 2.91c-.195.561-.35.909-.464 1.043-.114.135-.342.203-.684.203a6.83 6.83 0 0 1-.353-.011v-.619l.098.006c.076.004.148.001.217-.008a.389.389 0 0 0 .174-.063c.045-.03.086-.095.124-.192.04-.098.057-.158.049-.18l-1.086-3.089h.861l.646 2.183zm-47.975-.047h-1.474l-.277.823h-.874l1.428-4.002h.945l1.417 4.002h-.907l-.258-.823zm-.233-.689-.5-1.575-.516 1.575h1.016zm4.324-1.13c.239.256.359.63.359 1.124 0 .522-.118.919-.353 1.192-.234.274-.535.41-.904.41a.95.95 0 0 1-.587-.176 1.124 1.124 0 0 1-.249-.285v1.542h-.766v-4.124h.741v.437c.083-.129.172-.23.266-.304a.98.98 0 0 1 .614-.198c.345 0 .639.127.879.382zm-.439 1.162c0-.228-.053-.429-.158-.605-.103-.176-.271-.263-.505-.263-.28 0-.473.133-.578.399-.054.141-.082.32-.082.537 0 .344.092.586.275.725a.619.619 0 0 0 .385.122.557.557 0 0 0 .492-.249c.114-.167.171-.389.171-.666zm2.847-.765c-.311 0-.52.101-.627.304-.059.114-.089.289-.089.527v1.414h-.779v-2.959h.738v.516c.119-.198.224-.332.312-.405.145-.121.333-.182.565-.182.014 0 .026.001.035.003l.068.003v.792a1.795 1.795 0 0 0-.223-.013zm-49.805 2.245h-.779v-4.002h1.216l.728 3.147.722-3.147h1.203v4.002h-.779v-2.707c0-.078 0-.186.002-.325l.003-.326-.757 3.358h-.812l-.752-3.358.002.326.003.325v2.707zm3.915-2.639c.205-.26.556-.391 1.053-.391.324 0 .612.064.864.193.251.128.377.371.377.728v1.357c0 .094.002.208.006.342.005.101.02.17.046.206a.271.271 0 0 0 .114.09v.114h-.842a.911.911 0 0 1-.049-.168 1.927 1.927 0 0 1-.021-.179c-.107.115-.23.214-.37.295a1.106 1.106 0 0 1-.564.144.983.983 0 0 1-.666-.228c-.173-.154-.26-.371-.26-.651 0-.364.14-.627.421-.79.153-.089.38-.152.678-.19l.264-.033c.143-.018.245-.041.306-.068.111-.047.166-.12.166-.22 0-.121-.042-.204-.127-.249-.084-.048-.207-.071-.37-.071-.183 0-.312.045-.388.136a.575.575 0 0 0-.109.271h-.746c.016-.259.089-.471.217-.638zm.576 2.08c.072.06.161.089.266.089a.777.777 0 0 0 .458-.146c.142-.098.215-.276.22-.535v-.288a.837.837 0 0 1-.353.128l-.173.032c-.163.029-.28.065-.351.106a.356.356 0 0 0-.179.329c0 .132.037.227.112.285zm3.895-1.686c-.311 0-.52.101-.627.304-.059.114-.089.289-.089.527v1.414h-.779v-2.959h.738v.516c.119-.198.224-.332.312-.405.145-.121.333-.182.565-.182.014 0 .026.001.035.003l.068.003v.792a1.795 1.795 0 0 0-.223-.013zm-48.044-1.048h-2.006v.92h1.756v.695h-1.756v1.678h-.831V375.2h2.837v.703zm3.033 2.424c-.02.176-.112.354-.275.535-.253.288-.608.432-1.064.432-.376 0-.708-.121-.996-.364-.288-.243-.432-.637-.432-1.184 0-.512.13-.905.388-1.178.261-.273.599-.41 1.013-.41.246 0 .468.046.665.139.198.092.36.238.489.437.116.175.191.379.225.61.02.136.028.332.025.587h-2.026c.011.297.104.505.28.624a.654.654 0 0 0 .386.112.558.558 0 0 0 .388-.136.658.658 0 0 0 .144-.204h.79zm-.766-.906c-.013-.205-.075-.36-.187-.465a.57.57 0 0 0-.413-.16.53.53 0 0 0-.418.168.855.855 0 0 0-.185.457h1.203zm2.935 1.854c-.244 0-.441-.049-.589-.147a1.166 1.166 0 0 1-.288-.304v.372h-.757V375.2h.771v1.422a1.13 1.13 0 0 1 .323-.315.961.961 0 0 1 .532-.135c.389 0 .693.14.912.42.221.281.331.643.331 1.086 0 .46-.108.841-.326 1.143-.217.303-.52.454-.909.454zm.423-1.515c0-.21-.027-.384-.081-.521-.103-.261-.293-.391-.57-.391-.281 0-.473.127-.578.382a1.425 1.425 0 0 0-.082.527c0 .254.056.463.168.63.113.167.284.25.514.25a.532.532 0 0 0 .464-.242c.11-.161.165-.373.165-.635zm-48.485.233v-2.799h.836v2.786c0 .34-.059.61-.176.809-.2.336-.559.505-1.078.505-.52 0-.868-.136-1.045-.408-.178-.273-.266-.645-.266-1.115v-.093h.79v.093c.007.309.04.527.1.654.062.125.192.187.391.187.197 0 .328-.069.39-.206.039-.082.058-.219.058-.413zm1.716-1.436c.204-.261.555-.391 1.053-.391.324 0 .612.064.864.193.251.128.377.371.377.727v1.358c0 .094.002.208.005.342a.44.44 0 0 0 .046.206.276.276 0 0 0 .114.09v.114h-.841a.872.872 0 0 1-.049-.168 2.079 2.079 0 0 1-.022-.18c-.106.116-.23.215-.369.296a1.11 1.11 0 0 1-.565.144.98.98 0 0 1-.665-.228c-.174-.154-.26-.371-.26-.651 0-.364.14-.628.42-.79.154-.089.38-.152.68-.19l.262-.033c.143-.018.246-.041.307-.068.11-.047.166-.12.166-.22 0-.121-.043-.204-.128-.25-.083-.047-.206-.07-.369-.07-.183 0-.312.045-.388.136a.563.563 0 0 0-.109.271h-.746a1.13 1.13 0 0 1 .217-.638zm.575 2.08a.408.408 0 0 0 .266.089.79.79 0 0 0 .46-.146c.14-.098.214-.276.22-.535v-.288a.883.883 0 0 1-.15.076 1.4 1.4 0 0 1-.204.052l-.174.032c-.162.029-.28.064-.35.106a.355.355 0 0 0-.179.329c0 .132.037.227.111.285zm3.801-1.827c-.262 0-.442.111-.54.333-.05.118-.076.268-.076.451v1.602h-.771v-2.954h.746v.432c.1-.152.194-.262.283-.329a.984.984 0 0 1 .605-.179c.306 0 .556.081.75.242.195.159.293.424.293.795v1.993h-.793v-1.8a.817.817 0 0 0-.063-.358c-.076-.152-.22-.228-.434-.228zm-23.104-13.437c-.501 0-.853-.175-1.056-.526-.2-.352-.301-.852-.301-1.502s.1-1.151.301-1.504c.203-.353.555-.529 1.056-.529.502 0 .854.176 1.056.529.201.353.302.854.302 1.504s-.102 1.15-.304 1.502c-.201.351-.552.526-1.054.526zm.454-.991c.07-.239.105-.584.105-1.037 0-.474-.036-.825-.108-1.053-.07-.228-.221-.342-.45-.342-.23 0-.383.114-.457.342-.074.228-.111.579-.111 1.053 0 .453.037.799.111 1.04.074.239.226.358.456.358s.381-.12.454-.361zm-6.001-24.377h-.793v-2.715h-.926v-.527c.245-.011.416-.027.514-.049a.722.722 0 0 0 .38-.206.68.68 0 0 0 .152-.282.65.65 0 0 0 .03-.158h.643v3.937zm2.522.098c-.501 0-.853-.176-1.056-.527-.201-.351-.301-.852-.301-1.501 0-.65.1-1.152.3-1.504.204-.353.556-.53 1.057-.53.501 0 .853.177 1.056.53.201.352.301.854.301 1.504 0 .649-.1 1.15-.304 1.501-.2.351-.552.527-1.053.527zm.453-.991c.071-.239.106-.585.106-1.037 0-.475-.036-.826-.108-1.054-.07-.228-.221-.342-.451-.342s-.382.114-.456.342c-.074.228-.111.579-.111 1.054 0 .452.037.799.11 1.039.075.239.227.359.457.359s.381-.121.453-.361zm2.642.991c-.501 0-.853-.176-1.056-.527-.201-.351-.301-.852-.301-1.501 0-.65.1-1.152.3-1.504.204-.353.556-.53 1.057-.53.501 0 .853.177 1.056.53.201.352.302.854.302 1.504 0 .649-.102 1.15-.305 1.501-.2.351-.552.527-1.053.527zm.453-.991c.071-.239.106-.585.106-1.037 0-.475-.036-.826-.108-1.054-.07-.228-.221-.342-.451-.342s-.382.114-.456.342c-.074.228-.111.579-.111 1.054 0 .452.037.799.11 1.039.075.239.227.359.457.359s.381-.121.453-.361zm-6.241-27.513c-.092-.111-.225-.166-.396-.166-.236 0-.396.088-.481.263-.049.102-.078.263-.087.484h-.752c.013-.335.073-.606.182-.812.206-.393.573-.589 1.1-.589.416 0 .747.115.993.347.246.23.37.535.37.915 0 .291-.087.55-.261.777-.114.15-.302.317-.562.502l-.31.22a6.758 6.758 0 0 0-.399.298.89.89 0 0 0-.179.215h1.718v.681h-2.695c.007-.282.068-.54.181-.773.11-.263.372-.541.782-.834.357-.255.588-.438.693-.548a.812.812 0 0 0 .241-.565.623.623 0 0 0-.138-.415zm2.693 3.233c-.501 0-.853-.176-1.056-.527-.201-.351-.301-.851-.301-1.501 0-.65.1-1.151.3-1.504.204-.353.556-.529 1.057-.529.501 0 .853.176 1.056.529.201.353.301.854.301 1.504s-.1 1.15-.304 1.501c-.2.351-.552.527-1.053.527zm.453-.991c.071-.239.106-.585.106-1.037 0-.474-.036-.825-.108-1.053-.07-.228-.221-.342-.451-.342s-.382.114-.456.342c-.074.228-.111.579-.111 1.053 0 .452.037.799.11 1.04.075.239.227.358.457.358s.381-.12.453-.361zm2.642.991c-.501 0-.853-.176-1.056-.527-.201-.351-.301-.851-.301-1.501 0-.65.1-1.151.3-1.504.204-.353.556-.529 1.057-.529.501 0 .853.176 1.056.529.201.353.302.854.302 1.504s-.102 1.15-.305 1.501c-.2.351-.552.527-1.053.527zm.453-.991c.071-.239.106-.585.106-1.037 0-.474-.036-.825-.108-1.053-.07-.228-.221-.342-.451-.342s-.382.114-.456.342c-.074.228-.111.579-.111 1.053 0 .452.037.799.11 1.04.075.239.227.358.457.358s.381-.12.453-.361zm-7.11-27.529c-.087.116-.128.271-.125.464h-.722a1.92 1.92 0 0 1 .1-.556c.064-.154.163-.296.3-.427.1-.092.22-.162.36-.211.14-.049.31-.074.513-.074.377 0 .68.098.91.294.232.193.347.454.347.781a.866.866 0 0 1-.206.587.72.72 0 0 1-.272.204c.071 0 .173.06.305.181.197.183.296.433.296.75 0 .333-.116.626-.348.879-.23.252-.571.378-1.023.378-.558 0-.945-.182-1.163-.546-.113-.194-.177-.447-.19-.76h.76c0 .157.026.288.077.391.094.19.265.285.513.285a.567.567 0 0 0 .396-.155c.114-.105.171-.255.171-.451 0-.258-.105-.431-.315-.518-.12-.049-.307-.073-.564-.073v-.554c.251-.004.427-.028.526-.074.172-.076.258-.229.258-.461a.516.516 0 0 0-.133-.367.478.478 0 0 0-.37-.141c-.182 0-.316.058-.4.174zm3.562 3.25c-.501 0-.853-.176-1.056-.527-.201-.351-.301-.852-.301-1.501 0-.65.1-1.151.3-1.504.204-.353.556-.53 1.057-.53.501 0 .853.177 1.056.53.201.353.301.854.301 1.504 0 .649-.1 1.15-.304 1.501-.2.351-.552.527-1.053.527zm.453-.991c.071-.239.106-.585.106-1.037 0-.474-.036-.826-.108-1.054-.07-.228-.221-.342-.451-.342s-.382.114-.456.342c-.074.228-.111.58-.111 1.054 0 .452.037.799.11 1.04.075.238.227.358.457.358s.381-.12.453-.361zm2.642.991c-.501 0-.853-.176-1.056-.527-.201-.351-.301-.852-.301-1.501 0-.65.1-1.151.3-1.504.204-.353.556-.53 1.057-.53.501 0 .853.177 1.056.53.201.353.302.854.302 1.504 0 .649-.102 1.15-.305 1.501-.2.351-.552.527-1.053.527zm.453-.991c.071-.239.106-.585.106-1.037 0-.474-.036-.826-.108-1.054-.07-.228-.221-.342-.451-.342s-.382.114-.456.342c-.074.228-.111.58-.111 1.054 0 .452.037.799.11 1.04.075.238.227.358.457.358s.381-.12.453-.361zm-5.267-25.83v.605h-.445v.847h-.757v-.847H55.11v-.676l1.447-2.389h.868v2.46h.445zm-2.188 0h.986v-1.7l-.986 1.7zm3.907 1.55c-.501 0-.853-.176-1.056-.527-.201-.351-.301-.851-.301-1.501 0-.65.1-1.151.3-1.504.204-.353.556-.53 1.057-.53.501 0 .853.177 1.056.53.201.353.301.854.301 1.504s-.1 1.15-.304 1.501c-.2.351-.552.527-1.053.527zm.453-.991c.071-.239.106-.585.106-1.037 0-.474-.036-.825-.108-1.053-.07-.228-.221-.343-.451-.343s-.382.115-.456.343c-.074.228-.111.579-.111 1.053 0 .452.037.799.11 1.04.075.239.227.358.457.358s.381-.12.453-.361zm2.642.991c-.501 0-.853-.176-1.056-.527-.201-.351-.301-.851-.301-1.501 0-.65.1-1.151.3-1.504.204-.353.556-.53 1.057-.53.501 0 .853.177 1.056.53.201.353.302.854.302 1.504s-.102 1.15-.305 1.501c-.2.351-.552.527-1.053.527zm.453-.991c.071-.239.106-.585.106-1.037 0-.474-.036-.825-.108-1.053-.07-.228-.221-.343-.451-.343s-.382.115-.456.343c-.074.228-.111.579-.111 1.053 0 .452.037.799.11 1.04.075.239.227.358.457.358s.381-.12.453-.361zm-6.692-26.332a.772.772 0 0 0-.244.035.487.487 0 0 0-.274.242l-.695-.033.277-2.174h2.169v.657h-1.61l-.141.86c.12-.078.212-.129.28-.155a1.2 1.2 0 0 1 .41-.062c.325 0 .61.11.852.329.242.219.364.537.364.955a1.5 1.5 0 0 1-.35.975c-.234.286-.584.429-1.049.429-.374 0-.682-.101-.923-.302-.24-.2-.374-.486-.401-.855h.77c.031.169.09.299.177.391.087.091.214.136.38.136.192 0 .338-.067.437-.201a.83.83 0 0 0 .152-.51.878.878 0 0 0-.141-.508c-.094-.139-.24-.209-.44-.209zm3.144 2.052c-.501 0-.853-.175-1.056-.526-.201-.351-.301-.852-.301-1.502 0-.649.1-1.151.3-1.504.204-.353.556-.529 1.057-.529.501 0 .853.176 1.056.529.201.353.301.855.301 1.504 0 .65-.1 1.151-.304 1.502-.2.351-.552.526-1.053.526zm.453-.991c.071-.239.106-.584.106-1.037 0-.474-.036-.825-.108-1.053-.07-.228-.221-.342-.451-.342s-.382.114-.456.342c-.074.228-.111.579-.111 1.053 0 .453.037.799.11 1.04.075.239.227.358.457.358s.381-.12.453-.361zm2.642.991c-.501 0-.853-.175-1.056-.526-.201-.351-.301-.852-.301-1.502 0-.649.1-1.151.3-1.504.204-.353.556-.529 1.057-.529.501 0 .853.176 1.056.529.201.353.302.855.302 1.504 0 .65-.102 1.151-.305 1.502-.2.351-.552.526-1.053.526zm.453-.991c.071-.239.106-.584.106-1.037 0-.474-.036-.825-.108-1.053-.07-.228-.221-.342-.451-.342s-.382.114-.456.342c-.074.228-.111.579-.111 1.053 0 .453.037.799.11 1.04.075.239.227.358.457.358s.381-.12.453-.361z"/><path stroke="#E2E8F0" stroke-dasharray="2.16 2.16" stroke-linecap="round" stroke-linejoin="round" stroke-width=".618" d="M78.084 360.757h466.749M78.084 335.486h466.749m-466.749-25.27h466.749M78.084 284.945h466.749m-466.749-25.27h466.749M78.084 234.404l466.749.001"/><path fill="url(#b)" d="M141.155 306.712c-24.076-6.615-52.285 2.756-63.38 8.269v45.832h466.809V252.356c-23.3 3.783-43.092 2.802-46.837 22.562-3.054 16.117-3.19 27.609-19.416 30.972-16.314 3.381-25.796-16.397-42.162-30.972-13.092-11.66-35.141 3.513-43.277 8.371-14.424 8.456-47.213-9.993-61.423-24.494-20.29-20.707-46.973-22.601-67.125 0-20.152 22.6-40.141 4.071-65.243 16.123-25.103 12.053-27.851 40.063-57.946 31.794z"/><path stroke="#4FD1C5" stroke-width="1.853" d="M77.774 315.074c11.096-5.52 39.305-14.902 63.381-8.279 30.095 8.279 32.843-19.767 57.946-31.835 25.102-12.067 45.091 6.486 65.243-16.144 20.152-22.629 46.835-20.733 67.125 0 14.21 14.52 46.999 32.992 61.423 24.526 8.136-4.865 30.185-20.057 43.277-8.382 16.366 14.594 25.848 34.397 42.162 31.011 16.226-3.367 16.362-14.874 19.416-31.011 3.745-19.785 23.537-18.803 46.837-22.591"/><g filter="url(#c)"><rect width="238.229" height="49.423" x="318.534" y="55" fill="#fff" rx="9.267"/></g><path fill="#A0AEC0" d="M336.384 68.476v.944h-1.596v4.391h-1.123v-4.39h-1.603v-.945h4.322zm3.312 1.89c.333.417.5.91.5 1.48 0 .579-.167 1.075-.5 1.487-.333.41-.838.616-1.517.616-.678 0-1.183-.205-1.516-.615-.333-.413-.5-.91-.5-1.488 0-.57.167-1.063.5-1.48.333-.418.838-.627 1.516-.627.679 0 1.184.209 1.517.626zm-1.52.245c-.302 0-.535.108-.699.322-.162.213-.242.517-.242.913 0 .395.08.7.242.915.164.215.397.323.699.323.301 0 .533-.108.695-.323.161-.214.242-.52.242-.915 0-.396-.081-.7-.242-.913-.162-.214-.394-.322-.695-.322zm4.568 2.465v.772l-.489.018c-.487.016-.82-.068-.999-.254-.116-.118-.173-.3-.173-.546v-2.43h-.551v-.734h.551v-1.1h1.02v1.1h.641v.735h-.641v2.085c0 .161.021.263.062.304.041.038.166.058.376.058h.098l.105-.008zm.811-2.783c.273-.348.741-.522 1.404-.522.432 0 .816.086 1.151.257.336.172.504.495.504.97v1.81c0 .126.002.278.007.457.007.135.028.227.061.275a.374.374 0 0 0 .152.12v.151h-1.122a1.171 1.171 0 0 1-.065-.224 2.636 2.636 0 0 1-.029-.24 2.105 2.105 0 0 1-.492.396 1.48 1.48 0 0 1-.753.191c-.357 0-.653-.101-.887-.304-.232-.205-.347-.494-.347-.868 0-.486.187-.837.561-1.054.205-.118.506-.203.905-.253l.351-.044c.19-.024.327-.054.409-.09.147-.063.221-.16.221-.293 0-.162-.057-.273-.171-.333-.111-.063-.275-.094-.492-.094-.244 0-.416.06-.517.18a.745.745 0 0 0-.145.362h-.996c.022-.345.119-.628.29-.85zm.767 2.773a.54.54 0 0 0 .355.119c.222 0 .426-.065.612-.195.188-.13.286-.368.293-.713v-.384a1.204 1.204 0 0 1-.199.101 1.742 1.742 0 0 1-.272.069l-.231.043c-.217.039-.373.086-.467.142a.474.474 0 0 0-.239.438c0 .176.049.302.148.38zm3.233-4.59h1.031v5.335h-1.031v-5.335zm6.125 4.564c.263 0 .476-.029.64-.087.312-.11.467-.317.467-.619a.457.457 0 0 0-.231-.409c-.155-.094-.397-.177-.728-.25l-.565-.126c-.555-.126-.938-.262-1.151-.41-.359-.245-.539-.63-.539-1.154 0-.478.174-.875.521-1.19.348-.317.858-.475 1.531-.475.563 0 1.042.15 1.437.449.399.297.607.729.627 1.296h-1.072c-.019-.321-.159-.55-.42-.684a1.407 1.407 0 0 0-.648-.134c-.287 0-.516.058-.687.173a.552.552 0 0 0-.257.486c0 .19.084.332.253.427.108.062.34.136.695.22l.919.221c.403.097.707.226.913.388.318.25.477.614.477 1.09 0 .487-.187.892-.561 1.215-.371.321-.897.482-1.578.482-.695 0-1.242-.158-1.64-.474-.398-.319-.597-.756-.597-1.31h1.064c.034.243.1.425.199.546.181.22.491.33.931.33zm3.073-2.747c.273-.348.741-.522 1.404-.522.432 0 .816.086 1.151.257.336.172.504.495.504.97v1.81c0 .126.002.278.007.457.007.135.028.227.061.275a.374.374 0 0 0 .152.12v.151h-1.122a1.171 1.171 0 0 1-.065-.224 2.636 2.636 0 0 1-.029-.24 2.105 2.105 0 0 1-.492.396 1.48 1.48 0 0 1-.753.191c-.357 0-.653-.101-.887-.304-.232-.205-.347-.494-.347-.868 0-.486.187-.837.561-1.054.205-.118.506-.203.905-.253l.351-.044c.19-.024.327-.054.409-.09.147-.063.221-.16.221-.293 0-.162-.057-.273-.171-.333-.111-.063-.275-.094-.492-.094-.244 0-.416.06-.517.18a.745.745 0 0 0-.145.362h-.996c.022-.345.119-.628.29-.85zm.767 2.773a.54.54 0 0 0 .355.119c.222 0 .426-.065.612-.195.188-.13.286-.368.293-.713v-.384a1.204 1.204 0 0 1-.199.101 1.742 1.742 0 0 1-.272.069l-.231.043c-.217.039-.373.086-.467.142a.472.472 0 0 0-.239.438c0 .176.049.302.148.38zm3.233-4.59h1.031v5.335h-1.031v-5.335zm5.419 4.177c-.027.234-.149.472-.366.713-.338.384-.811.576-1.419.576a2 2 0 0 1-1.328-.485c-.384-.324-.576-.85-.576-1.579 0-.683.173-1.206.518-1.57.347-.365.797-.547 1.35-.547.328 0 .624.061.887.184s.48.318.651.583c.155.234.255.506.301.814.026.181.037.442.032.782h-2.7c.014.396.139.674.373.833a.878.878 0 0 0 .514.148.74.74 0 0 0 .517-.18.841.841 0 0 0 .192-.272h1.054zm-1.021-1.21c-.017-.272-.1-.478-.25-.618a.759.759 0 0 0-.55-.214c-.239 0-.425.075-.558.225-.13.15-.212.352-.246.608h1.604zm4.489-1.396c.308.198.486.538.532 1.02h-1.032a.609.609 0 0 0-.112-.314c-.114-.14-.307-.21-.579-.21-.225 0-.385.034-.482.104-.094.07-.141.153-.141.247a.27.27 0 0 0 .152.257c.101.055.46.15 1.075.286.41.096.718.242.923.438a.993.993 0 0 1 .304.742c0 .39-.146.71-.438.959-.289.246-.738.37-1.346.37-.621 0-1.079-.131-1.376-.392a1.286 1.286 0 0 1-.441-1.002h1.046c.021.183.068.313.141.39.128.138.364.207.709.207.203 0 .364-.03.482-.09.12-.061.181-.151.181-.272a.294.294 0 0 0-.145-.264c-.097-.06-.455-.164-1.075-.312-.447-.11-.762-.25-.945-.416-.183-.164-.275-.4-.275-.71 0-.364.142-.676.427-.937.287-.263.69-.395 1.209-.395.492 0 .894.098 1.206.294z"/><path fill="#2D3748" d="M334.331 86.101c-.691-.202-1.18-.485-1.466-.847-.282-.362-.423-.798-.423-1.308 0-.337.054-.643.163-.918a2.13 2.13 0 0 1 .467-.711 2.08 2.08 0 0 1 .858-.532c.192-.062.472-.107.841-.136v-.722h.516v.733c.59.047 1.054.192 1.39.434.612.388.929 1.016.95 1.884h-1.428c-.029-.322-.083-.557-.163-.706-.137-.257-.387-.398-.749-.423v2.069c.862.296 1.441.559 1.738.787.488.38.733.916.733 1.607 0 .912-.335 1.575-1.005 1.987-.409.254-.894.402-1.455.446v1.091h-.527v-1.08c-.713-.08-1.245-.236-1.596-.467-.619-.417-.923-1.126-.912-2.129h1.466c.05.456.121.762.212.918.141.242.418.4.83.472v-2.318l-.44-.13zm.956.31v2.123c.286-.036.494-.101.625-.196.228-.166.342-.454.342-.863 0-.311-.107-.557-.321-.738-.126-.105-.342-.214-.646-.326zm-.516-1.645V82.86c-.315.007-.548.092-.7.255-.152.16-.228.378-.228.657 0 .304.114.545.342.722.127.098.322.188.586.272zm7.569 4.783h-1.585v-5.43h-1.852v-1.053c.489-.022.831-.054 1.027-.098a1.45 1.45 0 0 0 .76-.412 1.36 1.36 0 0 0 .304-.565c.04-.141.06-.246.06-.315h1.286v7.873zm6.88-5.343a10.868 10.868 0 0 0-1.037 1.814c-.221.489-.42 1.086-.597 1.792-.178.706-.266 1.285-.266 1.737h-1.608c.047-1.411.511-2.88 1.39-4.403.569-.945 1.045-1.604 1.428-1.977h-3.925l.021-1.39h5.56v1.211c-.231.228-.553.634-.966 1.216zm3.421-.96c-.174.231-.257.54-.25.928h-1.444a3.85 3.85 0 0 1 .201-1.113 2.49 2.49 0 0 1 .597-.853 2.08 2.08 0 0 1 .722-.423c.279-.098.621-.147 1.026-.147.753 0 1.359.196 1.819.587.464.387.695.908.695 1.563 0 .464-.137.855-.412 1.173a1.414 1.414 0 0 1-.543.407c.141 0 .343.122.608.364.394.366.592.865.592 1.499a2.53 2.53 0 0 1-.695 1.759c-.46.503-1.143.755-2.048.755-1.114 0-1.889-.364-2.323-1.092-.229-.387-.355-.894-.381-1.52h1.521c0 .315.05.576.152.782.188.38.53.57 1.026.57.304 0 .568-.103.793-.31.228-.21.342-.51.342-.9 0-.518-.21-.864-.63-1.038-.239-.098-.615-.146-1.129-.146v-1.108c.503-.007.854-.056 1.053-.147.344-.152.516-.46.516-.923 0-.3-.089-.545-.266-.733-.174-.188-.42-.282-.739-.282-.365 0-.633.116-.803.347zm6.277 6.857a1.58 1.58 0 0 1-.364.695 1.84 1.84 0 0 1-.679.473c-.257.108-.434.162-.532.162v-.597c.311-.087.539-.231.684-.434.148-.203.234-.487.255-.853h-.939v-1.618h1.672v1.401c0 .246-.032.503-.097.771zm3.942-.358c-1.003 0-1.707-.351-2.113-1.054-.401-.702-.602-1.703-.602-3.002 0-1.3.201-2.302.602-3.008.406-.706 1.11-1.06 2.113-1.06 1.002 0 1.706.354 2.112 1.06.402.706.602 1.708.602 3.008s-.202 2.3-.608 3.002c-.401.703-1.104 1.054-2.106 1.054zm.906-1.982c.142-.478.212-1.17.212-2.074 0-.949-.072-1.65-.217-2.107-.141-.456-.442-.684-.901-.684-.46 0-.764.228-.913.684-.148.456-.222 1.158-.222 2.107 0 .905.074 1.598.222 2.08.149.477.453.716.913.716.459 0 .762-.24.906-.722zm5.284 1.982c-1.003 0-1.707-.351-2.113-1.054-.401-.702-.602-1.703-.602-3.002 0-1.3.201-2.302.602-3.008.406-.706 1.11-1.06 2.113-1.06 1.002 0 1.706.354 2.112 1.06.401.706.602 1.708.602 3.008s-.202 2.3-.608 3.002c-.402.703-1.104 1.054-2.106 1.054zm.906-1.982c.141-.478.212-1.17.212-2.074 0-.949-.072-1.65-.217-2.107-.141-.456-.442-.684-.901-.684-.46 0-.764.228-.913.684-.148.456-.222 1.158-.222 2.107 0 .905.074 1.598.222 2.08.149.477.453.716.913.716.459 0 .761-.24.906-.722zm5.283 1.982c-1.002 0-1.706-.351-2.112-1.054-.402-.702-.602-1.703-.602-3.002 0-1.3.2-2.302.602-3.008.406-.706 1.11-1.06 2.112-1.06 1.003 0 1.707.354 2.113 1.06.401.706.602 1.708.602 3.008s-.202 2.3-.608 3.002c-.402.703-1.104 1.054-2.107 1.054zm.907-1.982c.141-.478.212-1.17.212-2.074 0-.949-.072-1.65-.217-2.107-.141-.456-.442-.684-.902-.684-.459 0-.763.228-.912.684-.148.456-.222 1.158-.222 2.107 0 .905.074 1.598.222 2.08.149.477.453.716.912.716.46 0 .762-.24.907-.722z"/><path fill="#48BB78" d="M385.295 87.28v1.74h-1.111v-1.74h-1.731v-1.102h1.731v-1.731h1.111v1.731h1.732v1.103h-1.732zm2.656 1.356a1.81 1.81 0 0 1-.528-1.313c0-.344.078-.655.233-.933a1.49 1.49 0 0 1 .688-.63c-.295-.197-.488-.41-.578-.638a1.818 1.818 0 0 1-.131-.646c0-.445.167-.823.502-1.136.335-.315.808-.473 1.419-.473s1.084.158 1.419.473c.335.313.503.691.503 1.136 0 .2-.045.416-.135.647-.088.228-.279.426-.575.595.301.169.528.393.68.671.152.28.228.59.228.934 0 .515-.191.954-.574 1.317-.38.36-.912.541-1.596.541-.685 0-1.203-.182-1.555-.545zm.723-1.393c0 .3.077.535.232.7.157.167.374.25.65.25s.491-.083.646-.25c.158-.165.237-.4.237-.7 0-.313-.08-.55-.241-.71-.158-.163-.372-.245-.642-.245s-.485.082-.646.245c-.158.16-.236.397-.236.71zm.316-2.087c.135.141.324.212.566.212.245 0 .434-.07.566-.212a.755.755 0 0 0 .203-.544c0-.243-.068-.431-.203-.566-.132-.138-.321-.207-.566-.207-.242 0-.432.069-.57.207-.135.135-.203.323-.203.566 0 .222.069.404.207.544zm7.323 2.416c0-.436.154-.808.461-1.115a1.519 1.519 0 0 1 1.11-.456c.434 0 .804.153 1.111.46.307.307.46.677.46 1.111 0 .433-.153.804-.46 1.11a1.51 1.51 0 0 1-1.111.461 1.51 1.51 0 0 1-1.11-.46 1.514 1.514 0 0 1-.461-1.111zm-3.644-1.964a1.514 1.514 0 0 1-.461-1.11c0-.434.154-.804.461-1.111.307-.307.677-.46 1.11-.46.434 0 .804.153 1.111.46.307.307.46.677.46 1.11 0 .434-.153.804-.46 1.111-.304.307-.674.46-1.111.46-.433 0-.803-.153-1.11-.46zm1.773 3.573h-.654l3.425-6.284h.642l-3.413 6.284zm2.969-1.136c.13.132.287.198.473.198a.643.643 0 0 0 .473-.194.648.648 0 0 0 .199-.477.635.635 0 0 0-.199-.473.636.636 0 0 0-.473-.199.65.65 0 0 0-.477.199.645.645 0 0 0-.194.473c0 .186.066.343.198.473zm-4.105-3.075c.13.133.288.199.473.199a.643.643 0 0 0 .473-.194.648.648 0 0 0 .199-.477.635.635 0 0 0-.199-.474.636.636 0 0 0-.473-.198.651.651 0 0 0-.477.199.646.646 0 0 0-.194.472.64.64 0 0 0 .198.474z"/><g filter="url(#d)"><rect width="28.064" height="27.8" x="517.785" y="65.811" fill="#FF6F59" rx="7.413"/></g><path fill="#fff" d="M529.624 84.924a.873.873 0 0 0 .877-.869.873.873 0 0 0-.877-.869.873.873 0 0 0-.877.87c0 .48.393.868.877.868zm6.139 0a.873.873 0 0 0 .877-.869.873.873 0 0 0-.877-.869.873.873 0 0 0-.877.87c0 .48.392.868.877.868zm1.557-8.884a.656.656 0 0 0-.509-.238h-8.341l-.168-.944a.434.434 0 0 0-.432-.359h-1.754a.433.433 0 1 0 0 .869h1.386l1.252 7.026a.434.434 0 0 0 .432.358h7.016a.433.433 0 1 0 0-.869h-6.649l-.154-.868h6.623a.664.664 0 0 0 .417-.148.649.649 0 0 0 .228-.376l.79-3.91a.656.656 0 0 0-.137-.54z"/><g filter="url(#e)"><rect width="238.229" height="49.423" x="43" y="55" fill="#fff" rx="9.267"/></g><path fill="#A0AEC0" d="M58.927 71.719h-1.15v2.092h-1.09v-5.335h2.617c.374.007.661.053.861.137.203.085.374.209.514.373.116.135.208.285.276.449.067.164.1.351.1.561 0 .253-.063.503-.191.75-.128.243-.339.416-.633.517.246.099.42.24.52.423.105.181.157.459.157.833v.358c0 .244.01.41.028.496a.446.446 0 0 0 .203.304v.134h-1.227a2.632 2.632 0 0 1-.12-.746l-.007-.495c-.004-.34-.067-.567-.188-.68-.118-.114-.341-.171-.67-.171zm.677-.97c.222-.102.333-.302.333-.601 0-.323-.107-.54-.322-.652-.12-.062-.302-.094-.543-.094h-1.296v1.434h1.264c.25 0 .439-.03.564-.087zm5.709 1.904c-.027.234-.149.472-.366.713-.338.384-.81.576-1.419.576a2 2 0 0 1-1.328-.485c-.384-.324-.576-.85-.576-1.579 0-.683.173-1.206.518-1.57.347-.365.797-.547 1.35-.547.328 0 .624.061.887.184s.48.318.651.583c.155.234.255.506.3.814.028.181.038.442.034.782h-2.7c.014.396.138.674.372.833a.879.879 0 0 0 .514.148.74.74 0 0 0 .518-.18.86.86 0 0 0 .192-.272h1.053zm-1.021-1.21c-.017-.272-.1-.478-.25-.618a.76.76 0 0 0-.55-.214c-.239 0-.425.075-.557.225-.13.15-.213.352-.247.608h1.604zm5.075-1.154c.319.34.478.84.478 1.499 0 .695-.157 1.225-.47 1.589a1.512 1.512 0 0 1-1.206.547c-.314 0-.575-.079-.782-.236a1.518 1.518 0 0 1-.333-.38v2.056h-1.02v-5.498h.987v.582a1.66 1.66 0 0 1 .355-.405c.23-.176.502-.264.818-.264.461 0 .852.17 1.173.51zm-.586 1.55c0-.305-.07-.574-.21-.808-.138-.234-.362-.35-.674-.35-.374 0-.63.177-.77.531a2.019 2.019 0 0 0-.11.717c0 .459.123.78.366.966a.832.832 0 0 0 .514.163c.288 0 .506-.11.656-.333.152-.222.228-.517.228-.886zm5.19.814c-.026.234-.148.472-.365.713-.338.384-.81.576-1.42.576-.501 0-.944-.162-1.328-.485-.383-.324-.575-.85-.575-1.579 0-.683.172-1.206.517-1.57.348-.365.798-.547 1.35-.547.329 0 .625.061.888.184s.48.318.651.583c.155.234.255.506.3.814.027.181.038.442.033.782h-2.7c.014.396.138.674.373.833a.879.879 0 0 0 .514.148.74.74 0 0 0 .517-.18.858.858 0 0 0 .192-.272h1.053zm-1.02-1.21c-.017-.272-.1-.478-.25-.618a.76.76 0 0 0-.55-.214c-.24 0-.425.075-.558.225-.13.15-.212.352-.246.608h1.604zm1.918-1.15c.273-.348.741-.522 1.405-.522.432 0 .815.086 1.15.257.336.172.504.495.504.97v1.81c0 .126.002.278.007.457.007.135.028.227.062.275a.37.37 0 0 0 .152.12v.151h-1.122a1.151 1.151 0 0 1-.066-.224 2.713 2.713 0 0 1-.028-.24 2.12 2.12 0 0 1-.493.396 1.481 1.481 0 0 1-.753.191c-.357 0-.652-.101-.886-.304-.232-.205-.348-.494-.348-.868 0-.486.187-.837.561-1.054.205-.118.507-.203.905-.253l.351-.044a1.61 1.61 0 0 0 .41-.09c.146-.063.22-.16.22-.293 0-.162-.057-.273-.17-.333-.111-.063-.275-.094-.493-.094-.243 0-.416.06-.517.18a.752.752 0 0 0-.145.362h-.995c.021-.345.118-.628.29-.85zm.768 2.773c.096.08.214.119.354.119.222 0 .426-.065.612-.195.188-.13.286-.368.293-.713v-.384a1.193 1.193 0 0 1-.199.101 1.745 1.745 0 0 1-.271.069l-.232.043c-.217.039-.373.086-.467.142a.473.473 0 0 0-.239.438c0 .176.05.302.149.38zm5.017.01v.772l-.489.018c-.487.016-.82-.068-.999-.254-.116-.118-.174-.3-.174-.546v-2.43h-.55v-.734h.55v-1.1h1.021v1.1h.64v.735h-.64v2.085c0 .161.02.263.062.304.04.038.166.058.376.058h.098l.105-.008zm6.573.337c-.398.365-.907.547-1.527.547-.768 0-1.37-.246-1.81-.739-.44-.495-.659-1.173-.659-2.034 0-.932.25-1.65.75-2.154.434-.44.986-.659 1.657-.659.898 0 1.554.295 1.97.883.229.331.352.663.369.996h-1.115c-.073-.256-.165-.449-.279-.58-.203-.23-.503-.347-.901-.347-.406 0-.725.164-.96.493-.234.325-.35.787-.35 1.386 0 .599.122 1.047.369 1.347.248.296.563.445.944.445.391 0 .69-.128.894-.384.114-.137.208-.344.283-.619h1.104c-.097.582-.343 1.055-.739 1.42zm4.8-3.048c.333.418.5.911.5 1.48 0 .58-.167 1.076-.5 1.489-.333.41-.838.615-1.516.615s-1.184-.205-1.517-.615c-.333-.413-.5-.91-.5-1.488 0-.57.167-1.063.5-1.48.333-.418.838-.627 1.517-.627.678 0 1.183.209 1.516.626zm-1.52.246c-.302 0-.535.108-.699.322-.161.213-.242.517-.242.913 0 .395.08.7.242.915.164.215.397.323.699.323.302 0 .533-.108.695-.323.162-.214.243-.52.243-.915 0-.396-.081-.7-.243-.913-.162-.214-.393-.322-.695-.322zm2.784-2.135h1.031v5.335h-1.031v-5.335zm2.063 0h1.032v5.335h-1.032v-5.335zm5.419 4.177c-.027.234-.148.472-.366.713-.338.384-.81.576-1.419.576-.502 0-.944-.162-1.328-.485-.384-.324-.576-.85-.576-1.579 0-.683.173-1.206.518-1.57.347-.365.797-.547 1.35-.547.328 0 .624.061.887.184s.48.318.652.583c.154.234.254.506.3.814a5.3 5.3 0 0 1 .033.782h-2.7c.014.396.138.674.372.833a.879.879 0 0 0 .514.148.74.74 0 0 0 .518-.18.858.858 0 0 0 .191-.272h1.054zm-1.02-1.21c-.018-.272-.101-.478-.25-.618a.76.76 0 0 0-.55-.214c-.24 0-.426.075-.558.225-.13.15-.213.352-.246.608h1.603zm5.183-.162h-1.057a.92.92 0 0 0-.149-.398c-.115-.16-.295-.24-.539-.24-.348 0-.585.174-.713.519-.068.183-.101.427-.101.73 0 .29.033.523.101.7.123.328.355.492.695.492.241 0 .413-.066.514-.196a.977.977 0 0 0 .185-.507h1.053a1.73 1.73 0 0 1-.34.89c-.324.452-.803.678-1.437.678-.635 0-1.102-.188-1.401-.565-.3-.376-.449-.865-.449-1.466 0-.678.165-1.205.496-1.582.33-.376.786-.564 1.368-.564.495 0 .899.11 1.213.332.316.223.503.615.561 1.177zm2.519 1.795v.772l-.489.018c-.487.016-.82-.068-.999-.254-.115-.118-.173-.3-.173-.546v-2.43h-.551v-.734h.551v-1.1h1.02v1.1h.641v.735h-.641v2.085c0 .161.021.263.062.304.041.038.167.058.376.058h.098l.105-.008zm3.953-2.71c.333.417.5.91.5 1.48 0 .579-.167 1.075-.5 1.487-.333.41-.839.616-1.517.616-.678 0-1.183-.205-1.516-.615-.333-.413-.5-.91-.5-1.488 0-.57.167-1.063.5-1.48.333-.418.838-.627 1.516-.627s1.184.209 1.517.626zm-1.52.245c-.302 0-.535.108-.699.322-.162.213-.242.517-.242.913 0 .395.08.7.242.915.164.215.397.323.699.323.301 0 .533-.108.695-.323.161-.214.242-.52.242-.915 0-.396-.081-.7-.242-.913-.162-.214-.394-.322-.695-.322zm4.745.207c-.415 0-.693.135-.836.405-.079.152-.119.386-.119.702v1.886h-1.039v-3.945h.984v.687c.16-.263.298-.442.417-.539.193-.162.444-.242.753-.242a.25.25 0 0 1 .047.003l.09.004v1.057a2.722 2.722 0 0 0-.297-.018zm3.624-.771c.309.198.486.538.532 1.02h-1.032a.609.609 0 0 0-.112-.314c-.113-.14-.306-.21-.579-.21-.225 0-.385.034-.482.104-.094.07-.141.153-.141.247a.27.27 0 0 0 .152.257c.102.055.46.15 1.075.286.411.096.718.242.923.438a.994.994 0 0 1 .305.742c0 .39-.146.71-.438.959-.29.246-.739.37-1.347.37-.62 0-1.079-.131-1.376-.392a1.286 1.286 0 0 1-.441-1.002h1.046c.022.183.069.313.141.39.128.138.364.207.71.207.202 0 .363-.03.481-.09.121-.061.181-.151.181-.272a.292.292 0 0 0-.145-.264c-.096-.06-.455-.164-1.075-.312-.446-.11-.761-.25-.945-.416-.183-.164-.275-.4-.275-.71 0-.364.143-.676.427-.937.288-.263.691-.395 1.209-.395.493 0 .895.098 1.206.294z"/><path fill="#2D3748" d="M59.297 89.777c-.59 0-1.12-.173-1.591-.52-.47-.352-.74-.862-.81-1.532h1.543c.036.232.134.42.293.565.16.144.371.217.635.217.51 0 .87-.283 1.076-.847.112-.312.182-.766.211-1.363a1.673 1.673 0 0 1-.45.407c-.29.174-.647.26-1.07.26a2.438 2.438 0 0 1-1.667-.645c-.485-.435-.728-1.06-.728-1.874 0-.843.243-1.525.728-2.047.489-.525 1.122-.787 1.9-.787 1.199 0 2.02.53 2.466 1.59.253.602.38 1.393.38 2.374 0 .952-.122 1.746-.364 2.383-.463 1.213-1.314 1.82-2.552 1.82zm-.543-6.651c-.297.232-.445.624-.445 1.178 0 .467.094.818.282 1.053.192.232.485.348.88.348.213 0 .414-.061.602-.185.351-.224.527-.613.527-1.167 0-.445-.105-.798-.315-1.059-.206-.26-.49-.39-.852-.39-.265 0-.49.074-.68.222zm8.742 1.08a10.868 10.868 0 0 0-1.037 1.814 10.77 10.77 0 0 0-.597 1.792c-.178.706-.267 1.285-.267 1.737h-1.607c.047-1.411.51-2.88 1.39-4.403.569-.945 1.044-1.604 1.428-1.977h-3.925l.021-1.39h5.56v1.211c-.231.228-.553.634-.966 1.216zm4.355 5.539c-1.003 0-1.707-.351-2.113-1.054-.401-.702-.602-1.703-.602-3.002 0-1.3.2-2.302.602-3.008.406-.706 1.11-1.06 2.112-1.06 1.003 0 1.707.354 2.113 1.06.402.706.602 1.708.602 3.008s-.202 2.3-.608 3.002c-.401.703-1.104 1.054-2.106 1.054zm.906-1.982c.141-.478.212-1.17.212-2.074 0-.949-.072-1.65-.217-2.107-.141-.456-.442-.684-.901-.684-.46 0-.764.228-.913.684-.148.456-.222 1.158-.222 2.107 0 .905.074 1.598.222 2.08.149.477.453.716.912.716.46 0 .763-.24.907-.722zm5.283 1.982c-1.002 0-1.706-.351-2.112-1.054-.401-.702-.602-1.703-.602-3.002 0-1.3.2-2.302.602-3.008.406-.706 1.11-1.06 2.112-1.06 1.003 0 1.707.354 2.113 1.06.401.706.602 1.708.602 3.008s-.202 2.3-.608 3.002c-.402.703-1.104 1.054-2.107 1.054zm.907-1.982c.141-.478.212-1.17.212-2.074 0-.949-.072-1.65-.217-2.107-.141-.456-.442-.684-.901-.684-.46 0-.764.228-.913.684-.148.456-.222 1.158-.222 2.107 0 .905.074 1.598.222 2.08.149.477.453.716.912.716.46 0 .762-.24.907-.722z"/><path fill="#E53E3E" d="M94.649 86.039h2.424v1.14h-2.424v-1.14zm5.954 2.981H99.37v-4.223h-1.44v-.819c.38-.017.646-.042.798-.076.242-.053.44-.16.592-.32.104-.11.183-.257.236-.44a1.02 1.02 0 0 0 .047-.245h1v6.123zm6.065-2.259v.942h-.693v1.317h-1.178v-1.317h-2.424V86.65l2.251-3.716h1.351v3.826h.693zm-3.404 0h1.533v-2.644l-1.533 2.644zm7.999.811c0-.436.153-.808.46-1.115a1.521 1.521 0 0 1 1.111-.456c.433 0 .803.153 1.11.46.307.307.461.677.461 1.111 0 .433-.154.804-.461 1.11a1.51 1.51 0 0 1-1.11.461c-.434 0-.804-.153-1.111-.46a1.513 1.513 0 0 1-.46-1.111zm-3.645-1.964a1.513 1.513 0 0 1-.46-1.11c0-.434.153-.804.46-1.111.307-.307.677-.46 1.111-.46.433 0 .804.153 1.11.46.307.307.461.677.461 1.11 0 .434-.154.804-.461 1.111-.304.307-.674.46-1.11.46-.434 0-.804-.153-1.111-.46zm1.774 3.573h-.655l3.425-6.284h.642l-3.412 6.284zm2.969-1.136a.636.636 0 0 0 .473.198.646.646 0 0 0 .473-.194.651.651 0 0 0 .198-.477.638.638 0 0 0-.198-.473.639.639 0 0 0-.473-.199.653.653 0 0 0-.478.199.645.645 0 0 0-.194.473c0 .186.066.343.199.473zm-4.105-3.075a.636.636 0 0 0 .473.199.644.644 0 0 0 .473-.194.651.651 0 0 0 .198-.477.638.638 0 0 0-.198-.474.637.637 0 0 0-.473-.198.653.653 0 0 0-.478.199.646.646 0 0 0-.194.472c0 .186.066.344.199.474z"/><g filter="url(#f)"><rect width="28.064" height="27.8" x="242.252" y="65.811" fill="#FF6F59" rx="7.413"/></g><path fill="#fff" stroke="#FF6F59" stroke-width=".014" d="M257.16 78.85h3.837a.102.102 0 0 1 .103.101v5.105c0 .458-.184.898-.512 1.223a1.756 1.756 0 0 1-1.235.507h-6.139c-.463 0-.908-.183-1.235-.507a1.72 1.72 0 0 1-.512-1.224v-8.687c0-.459.184-.9.512-1.224a1.754 1.754 0 0 1 1.235-.506h2.521a.102.102 0 0 1 .103.101v3.8c0 .348.139.682.387.927.248.246.585.384.935.384zm-3.069 4.344h4.385a.449.449 0 0 0 .315-.13.438.438 0 0 0 0-.624.449.449 0 0 0-.315-.13h-4.385a.447.447 0 0 0-.446.442.447.447 0 0 0 .446.442zm0-2.172h4.385a.449.449 0 0 0 .315-.13.438.438 0 0 0 0-.624.449.449 0 0 0-.315-.13h-4.385a.447.447 0 0 0-.446.442.447.447 0 0 0 .446.442z"/><path fill="#fff" stroke="#FF6F59" stroke-width=".014" d="m256.81 73.983 3.941 3.904a.045.045 0 0 1 .013.024.042.042 0 0 1-.003.028.042.042 0 0 1-.017.02.05.05 0 0 1-.026.009h-3.558a.434.434 0 0 1-.305-.126.424.424 0 0 1-.126-.302v-3.524a.05.05 0 0 1 .008-.026.049.049 0 0 1 .021-.017.05.05 0 0 1 .028-.003.05.05 0 0 1 .024.013z"/><g filter="url(#g)"><rect width="238.229" height="49.423" x="318.534" y="111.837" fill="#fff" rx="9.267"/></g><path fill="#A0AEC0" d="M337.133 130.648h-1.114l-2.18-3.79v3.79h-1.038v-5.336h1.169l2.125 3.725v-3.725h1.038v5.336zm4.337-1.158c-.026.234-.148.471-.366.713-.337.383-.81.575-1.419.575-.501 0-.944-.161-1.328-.485-.384-.323-.576-.849-.576-1.578 0-.683.173-1.207.518-1.571.348-.364.798-.547 1.35-.547.328 0 .624.062.887.185s.48.317.652.583c.154.234.254.505.3.814.027.181.038.442.033.782h-2.701c.015.396.139.673.373.833a.88.88 0 0 0 .514.148c.213 0 .385-.06.518-.181a.88.88 0 0 0 .192-.271h1.053zm-1.021-1.209c-.017-.273-.1-.479-.25-.619a.756.756 0 0 0-.55-.214c-.239 0-.424.075-.557.224-.131.15-.213.353-.246.609h1.603zm4.764 2.367-.619-2.874-.626 2.874h-1.072l-1.107-3.946h1.107l.616 2.831.568-2.831h1.046l.601 2.842.615-2.842h1.075l-1.143 3.946h-1.061zm8.637-2.331h-2.592v1.372h2.954v.959h-4.043v-5.336h3.913v.945h-2.824v1.133h2.592v.927zm3.363-.529c-.087-.19-.257-.286-.511-.286-.294 0-.492.096-.593.286-.056.109-.084.271-.084.485v2.375h-1.046v-3.938h1.003v.575c.128-.205.249-.351.362-.438.2-.154.46-.232.778-.232.302 0 .546.067.732.2.149.123.263.281.34.474.135-.232.303-.402.503-.511.212-.108.449-.163.709-.163.174 0 .346.034.514.102.169.067.323.186.46.355.111.137.186.306.225.506.024.133.036.327.036.583l-.007 2.487h-1.057v-2.512a.824.824 0 0 0-.073-.369c-.092-.184-.26-.276-.507-.276-.284 0-.481.119-.59.355a1.124 1.124 0 0 0-.083.453v2.349h-1.039v-2.349c0-.234-.024-.405-.072-.511zm4.528-.659c.273-.347.741-.521 1.405-.521a2.5 2.5 0 0 1 1.151.257c.335.172.503.495.503.97v1.81c0 .126.002.278.007.456.007.135.028.227.062.275a.36.36 0 0 0 .152.12v.152h-1.122a1.105 1.105 0 0 1-.065-.224 2.337 2.337 0 0 1-.029-.239 2.126 2.126 0 0 1-.493.394 1.48 1.48 0 0 1-.753.192c-.357 0-.652-.101-.887-.304-.231-.205-.347-.495-.347-.869 0-.485.187-.836.561-1.053.205-.118.507-.203.905-.254l.351-.043c.191-.024.327-.054.409-.091.147-.062.221-.16.221-.293 0-.161-.057-.272-.17-.333-.111-.062-.275-.094-.492-.094-.244 0-.417.06-.518.181a.754.754 0 0 0-.145.362h-.995c.021-.345.118-.629.289-.851zm.768 2.773c.096.08.214.12.354.12.222 0 .426-.065.612-.196.188-.13.286-.368.293-.713v-.384a1.208 1.208 0 0 1-.199.102 1.767 1.767 0 0 1-.271.069l-.232.043c-.217.039-.373.086-.467.141a.474.474 0 0 0-.239.438c0 .176.05.303.149.38zm4.271-3.2v3.946h-1.046v-3.946h1.046zm0-1.422v.952h-1.046v-.952h1.046zm1.024.032h1.032v5.336h-1.032v-5.336zm4.761 1.571c.309.198.486.538.532 1.021h-1.032a.608.608 0 0 0-.112-.315c-.114-.14-.307-.21-.579-.21-.225 0-.385.035-.482.105-.094.07-.141.152-.141.246a.27.27 0 0 0 .152.257c.101.056.46.151 1.075.286.41.097.718.243.923.438a.995.995 0 0 1 .304.742c0 .391-.146.711-.438.96-.289.246-.738.369-1.346.369-.62 0-1.079-.13-1.376-.391a1.286 1.286 0 0 1-.441-1.003h1.046c.021.184.068.314.141.391.128.138.364.207.709.207.203 0 .364-.031.482-.091.12-.06.181-.151.181-.271a.294.294 0 0 0-.145-.265c-.097-.06-.455-.164-1.075-.311-.447-.111-.761-.25-.945-.416-.183-.164-.275-.401-.275-.71 0-.364.142-.677.427-.937.287-.263.69-.395 1.209-.395.492 0 .894.098 1.206.293zm7.431-1.571v.945H378.4v4.391h-1.122v-4.391h-1.604v-.945h4.322zm3.312 1.89c.333.417.5.911.5 1.48 0 .58-.167 1.075-.5 1.488-.333.41-.838.616-1.516.616-.679 0-1.184-.206-1.517-.616-.333-.413-.5-.908-.5-1.488 0-.569.167-1.063.5-1.48.333-.418.838-.626 1.517-.626.678 0 1.183.208 1.516.626zm-1.52.246c-.302 0-.535.107-.699.322-.161.213-.242.517-.242.912 0 .396.081.701.242.916.164.215.397.322.699.322.302 0 .533-.107.695-.322.162-.215.243-.52.243-.916 0-.395-.081-.699-.243-.912-.162-.215-.393-.322-.695-.322zm6.353-2.128v5.328h-1.003v-.547a1.456 1.456 0 0 1-.503.511c-.188.106-.422.159-.702.159-.461 0-.85-.186-1.166-.557-.314-.374-.47-.854-.47-1.438 0-.673.154-1.203.463-1.589.311-.386.726-.579 1.245-.579a1.242 1.242 0 0 1 1.09.594v-1.882h1.046zm-2.78 3.38c0 .365.072.656.217.873.142.219.36.329.652.329.292 0 .514-.108.666-.326.152-.217.228-.498.228-.843 0-.483-.122-.828-.366-1.035a.784.784 0 0 0-.521-.188c-.302 0-.524.114-.666.343-.14.227-.21.51-.21.847zm3.869-1.571c.273-.347.741-.521 1.405-.521.432 0 .816.086 1.151.257.335.172.503.495.503.97v1.81c0 .126.003.278.007.456.008.135.028.227.062.275a.36.36 0 0 0 .152.12v.152h-1.122a1.105 1.105 0 0 1-.065-.224 2.657 2.657 0 0 1-.029-.239 2.126 2.126 0 0 1-.493.394 1.479 1.479 0 0 1-.752.192c-.358 0-.653-.101-.887-.304-.232-.205-.348-.495-.348-.869 0-.485.187-.836.561-1.053.205-.118.507-.203.905-.254l.351-.043c.191-.024.327-.054.409-.091.148-.062.221-.16.221-.293 0-.161-.057-.272-.17-.333-.111-.062-.275-.094-.492-.094-.244 0-.417.06-.518.181a.754.754 0 0 0-.145.362h-.995c.022-.345.118-.629.289-.851zm.768 2.773c.096.08.215.12.355.12.222 0 .426-.065.611-.196.189-.13.286-.368.294-.713v-.384a1.258 1.258 0 0 1-.2.102 1.767 1.767 0 0 1-.271.069l-.232.043c-.217.039-.373.086-.467.141a.474.474 0 0 0-.239.438c0 .176.05.303.149.38zm4.814-.289.815-2.911h1.097l-1.354 3.881c-.261.748-.467 1.211-.619 1.39-.152.181-.456.271-.913.271a6.382 6.382 0 0 1-.47-.014v-.826l.13.008c.102.005.198.001.29-.011a.517.517 0 0 0 .231-.083c.061-.041.116-.127.167-.257.053-.131.075-.21.065-.239l-1.448-4.12h1.148l.861 2.911z"/><path fill="#2D3748" d="M335.808 140.115c-.184-.221-.448-.332-.792-.332-.471 0-.791.176-.961.527-.098.203-.156.525-.174.967h-1.504c.025-.67.146-1.211.364-1.624.412-.785 1.145-1.178 2.199-1.178.832 0 1.495.231 1.987.695.492.46.738 1.069.738 1.83 0 .582-.173 1.1-.521 1.553-.228.3-.603.635-1.124 1.004l-.619.44c-.387.275-.653.474-.798.597a1.763 1.763 0 0 0-.358.429h3.437v1.363h-5.392a3.695 3.695 0 0 1 .364-1.548c.22-.524.742-1.08 1.563-1.666.714-.511 1.175-.876 1.385-1.097.322-.344.483-.721.483-1.13 0-.333-.092-.61-.277-.83zm4.54 6.825a1.572 1.572 0 0 1-.364.695c-.192.21-.418.367-.679.472-.257.109-.434.163-.532.163v-.597c.311-.087.539-.232.684-.435.149-.202.234-.486.255-.852h-.939v-1.618h1.672v1.401c0 .246-.032.503-.097.771zm3.008-6.858c-.174.232-.257.541-.25.929h-1.444a3.86 3.86 0 0 1 .201-1.114c.126-.307.325-.591.597-.852a2.08 2.08 0 0 1 .722-.424c.279-.097.621-.146 1.026-.146.753 0 1.36.195 1.819.586.464.388.695.909.695 1.564 0 .463-.137.854-.412 1.173a1.409 1.409 0 0 1-.543.407c.141 0 .343.121.608.364.394.365.592.865.592 1.498a2.53 2.53 0 0 1-.695 1.76c-.46.503-1.142.754-2.047.754-1.115 0-1.89-.363-2.324-1.091-.228-.387-.355-.894-.38-1.52h1.52c0 .315.051.575.152.782.188.38.53.57 1.026.57.304 0 .568-.103.793-.31.228-.21.342-.51.342-.901 0-.518-.21-.863-.63-1.037-.239-.098-.615-.147-1.129-.147v-1.107c.503-.008.854-.057 1.053-.147.344-.152.516-.46.516-.923 0-.301-.089-.545-.266-.733-.174-.188-.42-.282-.739-.282-.365 0-.633.115-.803.347zm7.124 6.499c-1.003 0-1.707-.351-2.113-1.053-.401-.702-.602-1.703-.602-3.003 0-1.299.201-2.302.602-3.008.406-.706 1.11-1.058 2.113-1.058 1.002 0 1.706.352 2.112 1.058.402.706.603 1.709.603 3.008 0 1.3-.203 2.301-.609 3.003-.401.702-1.104 1.053-2.106 1.053zm.906-1.981c.142-.478.212-1.17.212-2.075 0-.948-.072-1.65-.217-2.106-.141-.456-.442-.684-.901-.684-.46 0-.764.228-.913.684-.148.456-.222 1.158-.222 2.106 0 .905.074 1.599.222 2.08.149.478.453.717.913.717.459 0 .762-.241.906-.722zm5.284 1.981c-1.003 0-1.707-.351-2.113-1.053-.401-.702-.602-1.703-.602-3.003 0-1.299.201-2.302.602-3.008.406-.706 1.11-1.058 2.113-1.058 1.002 0 1.706.352 2.112 1.058.402.706.602 1.709.602 3.008 0 1.3-.202 2.301-.608 3.003-.401.702-1.104 1.053-2.106 1.053zm.906-1.981c.142-.478.212-1.17.212-2.075 0-.948-.072-1.65-.217-2.106-.141-.456-.442-.684-.901-.684-.46 0-.764.228-.913.684-.148.456-.222 1.158-.222 2.106 0 .905.074 1.599.222 2.08.149.478.453.717.913.717.459 0 .762-.241.906-.722z"/><path fill="#48BB78" d="M366.586 144.117v1.74h-1.111v-1.74h-1.731v-1.102h1.731v-1.732h1.111v1.732h1.732v1.102h-1.732zm4.206-1.3c-.146 0-.273.018-.38.054a.756.756 0 0 0-.426.376l-1.081-.05.43-3.383h3.375v1.022h-2.505l-.219 1.339a2.44 2.44 0 0 1 .435-.241c.174-.065.387-.097.637-.097.507 0 .949.17 1.326.511.378.34.566.836.566 1.486a2.33 2.33 0 0 1-.544 1.516c-.364.445-.907.668-1.631.668-.582 0-1.061-.157-1.435-.469-.375-.313-.583-.756-.625-1.33h1.199c.048.261.139.464.274.608.136.14.333.211.592.211.298 0 .525-.104.68-.313.157-.211.236-.475.236-.794 0-.312-.073-.575-.22-.789-.146-.217-.374-.325-.684-.325zm6.812 1.592c0-.437.154-.808.461-1.115a1.519 1.519 0 0 1 1.11-.456c.434 0 .804.153 1.111.46.307.307.46.677.46 1.111 0 .433-.153.803-.46 1.11a1.514 1.514 0 0 1-1.111.461c-.433 0-.804-.154-1.11-.461a1.513 1.513 0 0 1-.461-1.11zm-3.644-1.964a1.514 1.514 0 0 1-.461-1.111c0-.433.154-.804.461-1.111.307-.306.677-.46 1.11-.46.434 0 .804.154 1.111.46.307.307.46.678.46 1.111 0 .434-.153.804-.46 1.111-.304.307-.674.46-1.111.46-.433 0-.803-.153-1.11-.46zm1.773 3.573h-.654l3.425-6.284h.642l-3.413 6.284zm2.969-1.136c.13.132.287.198.473.198a.644.644 0 0 0 .473-.194.649.649 0 0 0 .199-.477.634.634 0 0 0-.199-.473.634.634 0 0 0-.473-.199.647.647 0 0 0-.477.199.644.644 0 0 0-.194.473.64.64 0 0 0 .198.473zm-4.105-3.075a.64.64 0 0 0 .473.199.641.641 0 0 0 .473-.195.647.647 0 0 0 .199-.477.635.635 0 0 0-.199-.473.637.637 0 0 0-.473-.198.652.652 0 0 0-.477.198.646.646 0 0 0-.194.473c0 .186.066.344.198.473z"/><g filter="url(#h)"><rect width="28.064" height="27.8" x="517.785" y="122.648" fill="#FF6F59" rx="7.413"/></g><path fill="#fff" stroke="#FF6F59" stroke-miterlimit="10" stroke-width=".463" d="M531.817 130.901c-3.148 0-5.701 2.528-5.701 5.647 0 3.118 2.553 5.647 5.701 5.647 3.148 0 5.7-2.529 5.7-5.647 0-3.119-2.552-5.647-5.7-5.647z"/><path fill="#fff" stroke="#FF6F59" stroke-miterlimit="10" stroke-width=".463" d="M531.816 130.901c-1.591 0-3.087 2.528-3.087 5.647 0 3.118 1.496 5.647 3.087 5.647 1.592 0 3.088-2.529 3.088-5.647 0-3.119-1.496-5.647-3.088-5.647z"/><path fill="#fff" d="M528.017 132.783a6.598 6.598 0 0 0 3.8 1.177c1.433 0 2.752-.44 3.8-1.177"/><path stroke="#FF6F59" stroke-linecap="round" stroke-linejoin="round" stroke-width=".463" d="M528.017 132.783a6.598 6.598 0 0 0 3.8 1.177c1.433 0 2.752-.44 3.8-1.177m0 7.53a6.597 6.597 0 0 0-3.8-1.176 6.597 6.597 0 0 0-3.8 1.176"/><path stroke="#FF6F59" stroke-miterlimit="10" stroke-width=".463" d="M531.816 130.901v11.294m5.701-5.647h-11.401"/><g filter="url(#i)"><rect width="238.229" height="49.423" x="43" y="111.836" fill="#fff" rx="9.267"/></g><path fill="#A0AEC0" d="M61.048 130.25c-.398.364-.907.546-1.528.546-.767 0-1.37-.246-1.81-.738-.439-.495-.658-1.173-.658-2.035 0-.931.25-1.649.75-2.154.434-.439.986-.658 1.657-.658.898 0 1.554.294 1.97.883.228.331.352.662.368.995h-1.114c-.073-.255-.166-.448-.28-.579-.202-.231-.502-.347-.9-.347-.406 0-.726.164-.96.492-.234.326-.351.788-.351 1.386 0 .599.123 1.048.37 1.347.248.297.563.445.944.445.391 0 .689-.128.894-.383.114-.138.208-.344.282-.619h1.104c-.096.581-.342 1.054-.738 1.419zm4.8-3.048c.333.417.5.911.5 1.48 0 .579-.167 1.075-.5 1.488-.333.41-.839.615-1.517.615-.678 0-1.183-.205-1.516-.615-.333-.413-.5-.909-.5-1.488 0-.569.167-1.063.5-1.48.333-.418.838-.627 1.516-.627s1.184.209 1.517.627zm-1.52.246c-.302 0-.535.107-.699.322-.162.212-.242.516-.242.912s.08.701.242.916c.164.215.397.322.699.322.301 0 .533-.107.695-.322.161-.215.242-.52.242-.916s-.08-.7-.242-.912c-.162-.215-.394-.322-.695-.322zm2.783-2.136h1.032v5.336h-1.032v-5.336zm2.064 0h1.031v5.336h-1.031v-5.336zm5.419 4.177c-.027.234-.149.472-.366.713-.338.384-.81.576-1.419.576a2 2 0 0 1-1.328-.485c-.384-.323-.576-.849-.576-1.578 0-.683.172-1.207.518-1.571.347-.365.797-.547 1.35-.547.328 0 .624.062.887.185s.48.317.651.582c.155.235.255.506.3.815.027.181.038.442.033.782h-2.7c.014.396.139.673.373.832a.878.878 0 0 0 .514.149c.212 0 .385-.06.517-.181a.858.858 0 0 0 .192-.272h1.054zm-1.021-1.209c-.017-.272-.1-.479-.25-.619a.761.761 0 0 0-.55-.213c-.24 0-.425.075-.558.224-.13.15-.212.353-.246.608h1.604zm5.183-.163H77.7a.915.915 0 0 0-.148-.398c-.116-.159-.296-.239-.54-.239-.347 0-.585.173-.712.518-.068.183-.102.427-.102.731 0 .29.034.523.102.699.123.328.354.492.695.492.24 0 .412-.065.514-.195a.978.978 0 0 0 .184-.507h1.054c-.025.314-.138.61-.34.89-.324.452-.803.677-1.438.677-.635 0-1.101-.188-1.4-.564-.3-.377-.45-.866-.45-1.466 0-.679.166-1.206.496-1.582.331-.377.787-.565 1.369-.565.494 0 .899.111 1.212.333.317.222.504.614.561 1.176zm2.52 1.796v.771l-.489.018c-.487.017-.82-.068-.999-.253-.116-.119-.174-.301-.174-.547v-2.429h-.55v-.735h.55v-1.1h1.021v1.1h.64v.735h-.64v2.085c0 .162.02.263.062.304.04.039.166.058.376.058h.098l.105-.007zm1.723-3.211v3.946h-1.046v-3.946h1.046zm0-1.423v.952h-1.046v-.952h1.046zm3.145 5.474c-.325 0-.587-.065-.785-.196-.118-.077-.246-.212-.384-.405v.496h-1.01v-5.329h1.028v1.897c.13-.183.274-.323.431-.42.186-.12.422-.181.71-.181.519 0 .924.187 1.216.561.294.374.442.857.442 1.448 0 .613-.145 1.121-.435 1.524-.29.403-.694.605-1.213.605zm.565-2.02c0-.28-.036-.512-.108-.695-.138-.348-.391-.521-.76-.521-.375 0-.632.17-.771.51-.073.181-.11.415-.11.702 0 .338.076.618.225.84.15.222.378.333.684.333a.707.707 0 0 0 .62-.322c.147-.215.22-.497.22-.847zm1.846-3.421h1.032v5.336h-1.032v-5.336zm5.42 4.177c-.027.234-.15.472-.366.713-.338.384-.811.576-1.42.576-.501 0-.944-.162-1.328-.485-.383-.323-.575-.849-.575-1.578 0-.683.172-1.207.517-1.571.348-.365.798-.547 1.35-.547.329 0 .624.062.887.185s.48.317.652.582c.154.235.255.506.3.815.027.181.038.442.033.782h-2.7c.014.396.138.673.372.832a.878.878 0 0 0 .514.149c.213 0 .385-.06.518-.181a.858.858 0 0 0 .192-.272h1.053zm-1.021-1.209c-.017-.272-.1-.479-.25-.619a.761.761 0 0 0-.55-.213c-.24 0-.425.075-.558.224-.13.15-.212.353-.246.608h1.604zm4.488-1.397c.309.198.486.538.532 1.021h-1.031a.61.61 0 0 0-.113-.315c-.113-.14-.306-.21-.579-.21-.224 0-.385.035-.481.105-.094.07-.141.152-.141.246 0 .118.05.204.152.257.101.056.46.151 1.075.286.41.097.718.243.923.438a.994.994 0 0 1 .304.742 1.2 1.2 0 0 1-.438.959c-.29.247-.739.37-1.347.37-.62 0-1.079-.131-1.375-.391a1.287 1.287 0 0 1-.442-1.003h1.046c.022.183.069.314.141.391.128.137.365.206.71.206.203 0 .363-.03.481-.09.121-.061.181-.151.181-.272a.292.292 0 0 0-.145-.264c-.096-.06-.454-.164-1.075-.311-.446-.111-.761-.25-.944-.417-.184-.164-.276-.4-.276-.709 0-.364.143-.677.428-.938.287-.263.69-.394 1.209-.394.492 0 .894.098 1.205.293zm5.853 3.765h-2.298v-5.336h2.298c.331.005.606.043.826.116.374.123.677.349.908.677.186.265.313.552.38.861.068.309.102.604.102.884 0 .709-.143 1.31-.427 1.802-.386.664-.983.996-1.789.996zm.829-3.975c-.171-.289-.51-.434-1.017-.434h-1.028v3.482h1.028c.526 0 .893-.259 1.101-.778.113-.285.17-.624.17-1.017 0-.543-.085-.961-.254-1.253zm3.208.029v3.946h-1.047v-3.946h1.047zm0-1.423v.952h-1.047v-.952h1.047zm3.721 1.604c.309.198.486.538.532 1.021h-1.032a.608.608 0 0 0-.112-.315c-.113-.14-.306-.21-.579-.21-.225 0-.385.035-.482.105-.094.07-.141.152-.141.246a.27.27 0 0 0 .152.257c.102.056.46.151 1.075.286.411.097.718.243.923.438a.993.993 0 0 1 .304.742 1.2 1.2 0 0 1-.438.959c-.289.247-.738.37-1.346.37-.62 0-1.079-.131-1.376-.391a1.288 1.288 0 0 1-.441-1.003h1.046c.022.183.069.314.141.391.128.137.364.206.71.206.202 0 .363-.03.481-.09.121-.061.181-.151.181-.272a.291.291 0 0 0-.145-.264c-.096-.06-.455-.164-1.075-.311-.446-.111-.761-.25-.945-.417-.183-.164-.275-.4-.275-.709 0-.364.143-.677.427-.938.287-.263.691-.394 1.209-.394.493 0 .894.098 1.206.293zm3.214 3.03v.771l-.488.018c-.488.017-.821-.068-1-.253-.115-.119-.173-.301-.173-.547v-2.429h-.551v-.735h.551v-1.1h1.02v1.1h.641v.735h-.641v2.085c0 .162.021.263.062.304.041.039.167.058.376.058h.098l.105-.007zm2.646-2.259c-.415 0-.693.135-.836.406-.08.152-.119.386-.119.702v1.886h-1.039v-3.946h.984v.688c.16-.263.298-.443.417-.54.193-.161.444-.242.753-.242.019 0 .035.001.047.004l.09.003v1.057a2.621 2.621 0 0 0-.297-.018zm1.966-.952v3.946h-1.046v-3.946h1.046zm0-1.423v.952h-1.046v-.952h1.046zm3.146 5.474c-.326 0-.588-.065-.786-.196-.118-.077-.246-.212-.384-.405v.496h-1.01v-5.329h1.028v1.897c.131-.183.274-.323.431-.42.186-.12.423-.181.71-.181.519 0 .924.187 1.216.561.294.374.442.857.442 1.448 0 .613-.145 1.121-.435 1.524-.289.403-.694.605-1.212.605zm.564-2.02c0-.28-.036-.512-.108-.695-.138-.348-.391-.521-.761-.521-.374 0-.631.17-.771.51-.072.181-.108.415-.108.702 0 .338.075.618.224.84.15.222.378.333.684.333a.707.707 0 0 0 .619-.322c.148-.215.221-.497.221-.847zm4.355 1.357c-.01.012-.034.049-.072.109a.752.752 0 0 1-.138.159 1.431 1.431 0 0 1-.471.297c-.149.053-.325.08-.528.08-.584 0-.977-.21-1.18-.63-.114-.232-.17-.573-.17-1.025v-2.378h1.057v2.378c0 .225.026.394.079.507.094.2.279.301.554.301.352 0 .594-.143.724-.428.068-.154.101-.358.101-.611v-2.147h1.047v3.946h-1.003v-.558zm3.808-.177v.771l-.489.018c-.487.017-.82-.068-.999-.253-.116-.119-.174-.301-.174-.547v-2.429h-.55v-.735h.55v-1.1h1.021v1.1h.641v.735h-.641v2.085c0 .162.021.263.062.304.041.039.166.058.376.058h.098l.105-.007zm4.04-.424c-.027.234-.149.472-.366.713-.338.384-.811.576-1.419.576a2 2 0 0 1-1.328-.485c-.384-.323-.576-.849-.576-1.578 0-.683.173-1.207.518-1.571.347-.365.797-.547 1.35-.547.328 0 .624.062.887.185s.48.317.651.582c.155.235.255.506.301.815.026.181.037.442.032.782h-2.7c.015.396.139.673.373.832a.878.878 0 0 0 .514.149.74.74 0 0 0 .518-.181.856.856 0 0 0 .191-.272h1.054zm-1.021-1.209c-.017-.272-.1-.479-.25-.619a.76.76 0 0 0-.55-.213c-.239 0-.425.075-.557.224-.131.15-.213.353-.247.608h1.604zm5.361-2.961v5.329h-1.003v-.547a1.465 1.465 0 0 1-.503.511c-.188.106-.422.159-.702.159-.461 0-.85-.186-1.166-.558-.313-.374-.47-.853-.47-1.437 0-.673.154-1.203.463-1.589.311-.386.726-.579 1.245-.579a1.242 1.242 0 0 1 1.09.594v-1.883h1.046zm-2.78 3.381c0 .365.072.655.217.873.142.219.36.329.652.329.292 0 .514-.109.666-.326.152-.217.228-.498.228-.843 0-.483-.122-.828-.366-1.035a.783.783 0 0 0-.521-.189c-.302 0-.524.115-.666.344-.14.227-.21.509-.21.847zm9.745-3.388v.945H144.5v4.391h-1.122v-4.391h-1.604v-.945h4.323zm3.312 1.89c.333.417.499.911.499 1.48 0 .579-.166 1.075-.499 1.488-.333.41-.839.615-1.517.615-.678 0-1.184-.205-1.517-.615-.333-.413-.499-.909-.499-1.488 0-.569.166-1.063.499-1.48.333-.418.839-.627 1.517-.627.678 0 1.184.209 1.517.627zm-1.521.246c-.301 0-.534.107-.698.322-.162.212-.243.516-.243.912s.081.701.243.916c.164.215.397.322.698.322.302 0 .534-.107.695-.322.162-.215.243-.52.243-.916s-.081-.7-.243-.912c-.161-.215-.393-.322-.695-.322zm6.353-2.129v5.329h-1.002v-.547a1.467 1.467 0 0 1-.504.511c-.188.106-.422.159-.702.159-.461 0-.849-.186-1.165-.558-.314-.374-.471-.853-.471-1.437 0-.673.154-1.203.463-1.589.312-.386.727-.579 1.246-.579a1.247 1.247 0 0 1 1.089.594v-1.883h1.046zm-2.78 3.381c0 .365.073.655.217.873.143.219.36.329.652.329.292 0 .514-.109.666-.326.152-.217.228-.498.228-.843 0-.483-.122-.828-.366-1.035a.783.783 0 0 0-.521-.189c-.301 0-.523.115-.666.344-.14.227-.21.509-.21.847zm3.87-1.571c.273-.347.741-.521 1.404-.521.432 0 .816.086 1.151.257.336.171.504.495.504.97v1.81c0 .125.002.278.007.456.007.135.028.227.061.275a.384.384 0 0 0 .152.12v.152h-1.122a1.181 1.181 0 0 1-.065-.225 2.613 2.613 0 0 1-.029-.239 2.104 2.104 0 0 1-.492.395 1.48 1.48 0 0 1-.753.192c-.357 0-.653-.102-.887-.304-.232-.205-.347-.495-.347-.869 0-.485.187-.836.561-1.053.205-.119.506-.203.905-.254l.351-.043c.19-.024.327-.055.409-.091.147-.062.221-.16.221-.293 0-.162-.057-.273-.171-.333-.111-.063-.275-.094-.492-.094-.244 0-.416.06-.518.181a.754.754 0 0 0-.144.362h-.996c.022-.345.118-.629.29-.851zm.767 2.773c.097.08.215.119.355.119.222 0 .426-.065.612-.195.188-.13.286-.368.293-.713v-.384a1.249 1.249 0 0 1-.199.102 1.689 1.689 0 0 1-.272.068l-.231.044c-.218.038-.373.085-.467.141a.472.472 0 0 0-.239.438c0 .176.049.303.148.38zm4.815-.29.814-2.91h1.097l-1.354 3.881c-.261.748-.467 1.211-.619 1.39-.152.181-.456.271-.912.271-.092 0-.165-.001-.221-.004-.055 0-.139-.003-.25-.01v-.826l.131.007c.101.005.198.002.289-.01a.514.514 0 0 0 .232-.084c.06-.041.116-.126.166-.257.053-.13.075-.21.066-.239l-1.448-4.119h1.147l.862 2.91z"/><path fill="#2D3748" d="M60.615 146.386H59.03v-5.43h-1.852v-1.053c.489-.022.831-.055 1.027-.098.31-.069.564-.206.76-.413.134-.141.235-.329.304-.565.04-.141.06-.246.06-.314h1.286v7.873zm5.848-6.272c-.184-.22-.449-.331-.793-.331-.47 0-.79.176-.96.527-.098.203-.156.525-.174.966h-1.504c.025-.669.146-1.211.363-1.623.413-.786 1.146-1.178 2.2-1.178.832 0 1.494.231 1.987.695.492.459.738 1.069.738 1.829a2.48 2.48 0 0 1-.521 1.553c-.228.301-.603.636-1.124 1.005l-.62.44c-.386.275-.652.474-.797.597-.141.123-.26.266-.359.429h3.438v1.363h-5.392a3.7 3.7 0 0 1 .364-1.548c.22-.525.742-1.08 1.563-1.667.713-.51 1.175-.876 1.385-1.097.322-.343.483-.72.483-1.129 0-.333-.092-.61-.277-.831zm4.54 6.826a1.575 1.575 0 0 1-.364.695 1.84 1.84 0 0 1-.679.472c-.257.109-.434.163-.532.163v-.597c.311-.087.54-.232.684-.435.148-.202.234-.487.255-.852h-.94v-1.618H71.1v1.401c0 .246-.032.503-.097.771zm3.942-.359c-1.003 0-1.707-.351-2.113-1.053-.401-.702-.602-1.703-.602-3.003 0-1.299.2-2.302.602-3.008.406-.706 1.11-1.059 2.113-1.059 1.002 0 1.706.353 2.112 1.059.401.706.602 1.709.602 3.008 0 1.3-.202 2.301-.608 3.003-.401.702-1.104 1.053-2.106 1.053zm.906-1.982c.141-.477.212-1.169.212-2.074 0-.948-.072-1.65-.217-2.107-.141-.456-.442-.684-.901-.684-.46 0-.764.228-.913.684-.148.457-.222 1.159-.222 2.107 0 .905.074 1.598.222 2.08.149.478.453.717.913.717s.762-.241.906-.723zm5.284 1.982c-1.003 0-1.707-.351-2.113-1.053-.401-.702-.602-1.703-.602-3.003 0-1.299.2-2.302.602-3.008.406-.706 1.11-1.059 2.112-1.059 1.003 0 1.707.353 2.113 1.059.401.706.602 1.709.602 3.008 0 1.3-.202 2.301-.608 3.003-.402.702-1.104 1.053-2.106 1.053zm.906-1.982c.141-.477.212-1.169.212-2.074 0-.948-.072-1.65-.217-2.107-.141-.456-.442-.684-.901-.684-.46 0-.764.228-.913.684-.148.457-.222 1.159-.222 2.107 0 .905.074 1.598.222 2.08.149.478.453.717.913.717s.761-.241.906-.723zm5.283 1.982c-1.002 0-1.706-.351-2.112-1.053-.402-.702-.603-1.703-.603-3.003 0-1.299.201-2.302.603-3.008.406-.706 1.11-1.059 2.112-1.059 1.003 0 1.707.353 2.113 1.059.401.706.602 1.709.602 3.008 0 1.3-.202 2.301-.608 3.003-.402.702-1.104 1.053-2.107 1.053zm.907-1.982c.141-.477.212-1.169.212-2.074 0-.948-.072-1.65-.217-2.107-.141-.456-.442-.684-.902-.684s-.763.228-.912.684c-.148.457-.222 1.159-.222 2.107 0 .905.074 1.598.222 2.08.149.478.453.717.912.717.46 0 .762-.241.907-.723z"/><path fill="#48BB78" d="M103.524 144.117v1.74h-1.111v-1.74h-1.732v-1.102h1.732v-1.732h1.111v1.732h1.731v1.102h-1.731zm4.206-1.301a1.19 1.19 0 0 0-.38.055.758.758 0 0 0-.427.376l-1.081-.051.431-3.382h3.374v1.022h-2.504l-.22 1.338a2.49 2.49 0 0 1 .435-.24c.175-.065.387-.098.638-.098.507 0 .949.171 1.326.511.377.341.566.837.566 1.487 0 .566-.182 1.071-.545 1.516-.363.445-.907.667-1.63.667-.583 0-1.062-.156-1.436-.468-.374-.313-.583-.756-.625-1.331h1.199c.048.262.14.465.275.608.135.141.332.212.591.212.299 0 .525-.105.68-.313.158-.211.237-.476.237-.794 0-.312-.074-.576-.22-.79-.146-.216-.375-.325-.684-.325zm4.814 0c-.146 0-.273.019-.38.055a.753.753 0 0 0-.426.376l-1.082-.051.431-3.382h3.375v1.022h-2.505l-.219 1.338a2.42 2.42 0 0 1 .435-.24 1.83 1.83 0 0 1 .637-.098c.507 0 .949.171 1.326.511.378.341.566.837.566 1.487 0 .566-.181 1.071-.545 1.516-.363.445-.906.667-1.63.667-.582 0-1.061-.156-1.436-.468-.374-.313-.582-.756-.625-1.331h1.2c.048.262.139.465.274.608.135.141.333.212.592.212.298 0 .525-.105.679-.313.158-.211.237-.476.237-.794 0-.312-.073-.576-.22-.79-.146-.216-.374-.325-.684-.325zm6.812 1.592c0-.436.154-.808.46-1.115a1.523 1.523 0 0 1 1.111-.456c.434 0 .804.154 1.111.461.307.307.46.677.46 1.11 0 .434-.153.804-.46 1.111-.307.307-.677.46-1.111.46-.433 0-.804-.153-1.111-.46a1.517 1.517 0 0 1-.46-1.111zm-3.644-1.963a1.514 1.514 0 0 1-.461-1.111c0-.434.154-.804.461-1.111a1.51 1.51 0 0 1 1.11-.46c.434 0 .804.153 1.111.46.307.307.46.677.46 1.111 0 .434-.153.804-.46 1.111-.304.307-.674.46-1.111.46a1.51 1.51 0 0 1-1.11-.46zm1.773 3.572h-.654l3.425-6.284h.642l-3.413 6.284zm2.969-1.136c.13.133.287.199.473.199a.644.644 0 0 0 .473-.194.651.651 0 0 0 .199-.478.637.637 0 0 0-.199-.473.637.637 0 0 0-.473-.198.65.65 0 0 0-.477.198.644.644 0 0 0-.194.473c0 .186.066.344.198.473zm-4.105-3.074c.13.132.287.198.473.198a.64.64 0 0 0 .473-.194.647.647 0 0 0 .199-.477.634.634 0 0 0-.199-.473.637.637 0 0 0-.473-.199.651.651 0 0 0-.477.199.644.644 0 0 0-.194.473c0 .186.066.343.198.473z"/><g filter="url(#j)"><rect width="28.064" height="27.8" x="242.252" y="122.648" fill="#FF6F59" rx="7.413"/></g><path fill="#fff" d="M251.885 132.42h8.77c.103 0 .205.006.307.019a1.788 1.788 0 0 0-.737-1.203 1.816 1.816 0 0 0-1.388-.305l-7.212 1.22h-.008a1.806 1.806 0 0 0-1.126.709 2.413 2.413 0 0 1 1.394-.44zm8.77.653h-8.77a1.77 1.77 0 0 0-1.24.509 1.73 1.73 0 0 0-.514 1.229v5.212c0 .461.185.902.514 1.228.329.326.775.509 1.24.51h8.77a1.763 1.763 0 0 0 1.239-.51c.329-.326.514-.767.515-1.228v-5.212a1.735 1.735 0 0 0-.515-1.229 1.766 1.766 0 0 0-1.239-.509zm-1.302 5.213a.877.877 0 0 1-.86-1.039.87.87 0 0 1 .689-.682.88.88 0 0 1 .9.369.863.863 0 0 1-.109 1.097.88.88 0 0 1-.62.255z"/><path fill="#fff" d="M250.145 136.642v-2.702c0-.588.328-1.574 1.47-1.788.969-.18 1.928-.18 1.928-.18s.63.434.109.434c-.52 0-.507.665 0 .665s0 .638 0 .638l-2.041 2.295-1.466.638z"/><defs><filter id="a" width="520.898" height="231.704" x="39.602" y="169.291" color-interpolation-filters="sRGB" filterUnits="userSpaceOnUse"><feFlood flood-opacity="0" result="BackgroundImageFix"/><feColorMatrix in="SourceAlpha" result="hardAlpha" values="0 0 0 0 0 0 0 0 0 0 0 0 0 0 0 0 0 0 127 0"/><feOffset dy="2.162"/><feGaussianBlur stdDeviation="1.699"/><feColorMatrix values="0 0 0 0 0 0 0 0 0 0 0 0 0 0 0 0 0 0 0.02 0"/><feBlend in2="BackgroundImageFix" result="effect1_dropShadow_3715_3561"/><feBlend in="SourceGraphic" in2="effect1_dropShadow_3715_3561" result="shape"/></filter><filter id="c" width="245.024" height="56.219" x="315.136" y="53.764" color-interpolation-filters="sRGB" filterUnits="userSpaceOnUse"><feFlood flood-opacity="0" result="BackgroundImageFix"/><feColorMatrix in="SourceAlpha" result="hardAlpha" values="0 0 0 0 0 0 0 0 0 0 0 0 0 0 0 0 0 0 127 0"/><feOffset dy="2.162"/><feGaussianBlur stdDeviation="1.699"/><feColorMatrix values="0 0 0 0 0 0 0 0 0 0 0 0 0 0 0 0 0 0 0.02 0"/><feBlend in2="BackgroundImageFix" result="effect1_dropShadow_3715_3561"/><feBlend in="SourceGraphic" in2="effect1_dropShadow_3715_3561" result="shape"/></filter><filter id="d" width="34.859" height="34.596" x="514.387" y="64.576" color-interpolation-filters="sRGB" filterUnits="userSpaceOnUse"><feFlood flood-opacity="0" result="BackgroundImageFix"/><feColorMatrix in="SourceAlpha" result="hardAlpha" values="0 0 0 0 0 0 0 0 0 0 0 0 0 0 0 0 0 0 127 0"/><feOffset dy="2.162"/><feGaussianBlur stdDeviation="1.699"/><feColorMatrix values="0 0 0 0 0 0 0 0 0 0 0 0 0 0 0 0 0 0 0.02 0"/><feBlend in2="BackgroundImageFix" result="effect1_dropShadow_3715_3561"/><feBlend in="SourceGraphic" in2="effect1_dropShadow_3715_3561" result="shape"/></filter><filter id="e" width="245.024" height="56.219" x="39.602" y="53.764" color-interpolation-filters="sRGB" filterUnits="userSpaceOnUse"><feFlood flood-opacity="0" result="BackgroundImageFix"/><feColorMatrix in="SourceAlpha" result="hardAlpha" values="0 0 0 0 0 0 0 0 0 0 0 0 0 0 0 0 0 0 127 0"/><feOffset dy="2.162"/><feGaussianBlur stdDeviation="1.699"/><feColorMatrix values="0 0 0 0 0 0 0 0 0 0 0 0 0 0 0 0 0 0 0.02 0"/><feBlend in2="BackgroundImageFix" result="effect1_dropShadow_3715_3561"/><feBlend in="SourceGraphic" in2="effect1_dropShadow_3715_3561" result="shape"/></filter><filter id="f" width="34.859" height="34.596" x="238.854" y="64.576" color-interpolation-filters="sRGB" filterUnits="userSpaceOnUse"><feFlood flood-opacity="0" result="BackgroundImageFix"/><feColorMatrix in="SourceAlpha" result="hardAlpha" values="0 0 0 0 0 0 0 0 0 0 0 0 0 0 0 0 0 0 127 0"/><feOffset dy="2.162"/><feGaussianBlur stdDeviation="1.699"/><feColorMatrix values="0 0 0 0 0 0 0 0 0 0 0 0 0 0 0 0 0 0 0.02 0"/><feBlend in2="BackgroundImageFix" result="effect1_dropShadow_3715_3561"/><feBlend in="SourceGraphic" in2="effect1_dropShadow_3715_3561" result="shape"/></filter><filter id="g" width="245.024" height="56.219" x="315.136" y="110.601" color-interpolation-filters="sRGB" filterUnits="userSpaceOnUse"><feFlood flood-opacity="0" result="BackgroundImageFix"/><feColorMatrix in="SourceAlpha" result="hardAlpha" values="0 0 0 0 0 0 0 0 0 0 0 0 0 0 0 0 0 0 127 0"/><feOffset dy="2.162"/><feGaussianBlur stdDeviation="1.699"/><feColorMatrix values="0 0 0 0 0 0 0 0 0 0 0 0 0 0 0 0 0 0 0.02 0"/><feBlend in2="BackgroundImageFix" result="effect1_dropShadow_3715_3561"/><feBlend in="SourceGraphic" in2="effect1_dropShadow_3715_3561" result="shape"/></filter><filter id="h" width="34.859" height="34.596" x="514.387" y="121.412" color-interpolation-filters="sRGB" filterUnits="userSpaceOnUse"><feFlood flood-opacity="0" result="BackgroundImageFix"/><feColorMatrix in="SourceAlpha" result="hardAlpha" values="0 0 0 0 0 0 0 0 0 0 0 0 0 0 0 0 0 0 127 0"/><feOffset dy="2.162"/><feGaussianBlur stdDeviation="1.699"/><feColorMatrix values="0 0 0 0 0 0 0 0 0 0 0 0 0 0 0 0 0 0 0.02 0"/><feBlend in2="BackgroundImageFix" result="effect1_dropShadow_3715_3561"/><feBlend in="SourceGraphic" in2="effect1_dropShadow_3715_3561" result="shape"/></filter><filter id="i" width="245.024" height="56.219" x="39.602" y="110.601" color-interpolation-filters="sRGB" filterUnits="userSpaceOnUse"><feFlood flood-opacity="0" result="BackgroundImageFix"/><feColorMatrix in="SourceAlpha" result="hardAlpha" values="0 0 0 0 0 0 0 0 0 0 0 0 0 0 0 0 0 0 127 0"/><feOffset dy="2.162"/><feGaussianBlur stdDeviation="1.699"/><feColorMatrix values="0 0 0 0 0 0 0 0 0 0 0 0 0 0 0 0 0 0 0.02 0"/><feBlend in2="BackgroundImageFix" result="effect1_dropShadow_3715_3561"/><feBlend in="SourceGraphic" in2="effect1_dropShadow_3715_3561" result="shape"/></filter><filter id="j" width="34.859" height="34.596" x="238.854" y="121.412" color-interpolation-filters="sRGB" filterUnits="userSpaceOnUse"><feFlood flood-opacity="0" result="BackgroundImageFix"/><feColorMatrix in="SourceAlpha" result="hardAlpha" values="0 0 0 0 0 0 0 0 0 0 0 0 0 0 0 0 0 0 127 0"/><feOffset dy="2.162"/><feGaussianBlur stdDeviation="1.699"/><feColorMatrix values="0 0 0 0 0 0 0 0 0 0 0 0 0 0 0 0 0 0 0.02 0"/><feBlend in2="BackgroundImageFix" result="effect1_dropShadow_3715_3561"/><feBlend in="SourceGraphic" in2="effect1_dropShadow_3715_3561" result="shape"/></filter><linearGradient id="b" x1="311.179" x2="311.179" y1="242.547" y2="360.813" gradientUnits="userSpaceOnUse"><stop stop-color="#4FD1C5" stop-opacity=".54"/><stop offset="1" stop-color="#4FD1C5" stop-opacity="0"/></linearGradient></defs></svg>